# Blender v2.81 (sub 16) OBJ File: 'LudumDare_47.blend'
# www.blender.org
mtllib Airfresh.mtl
o Cube.006_Cube.058
v 0.011890 -0.893964 -0.011731
v 0.024270 -0.893964 -0.011731
v 0.011890 -0.919183 -0.011779
v 0.024270 -0.919183 -0.011779
v 0.011890 -0.666379 -0.103511
v 0.011890 -0.672438 -0.044000
v 0.011890 -0.774291 -0.146470
v 0.011890 -0.780350 -0.044000
v 0.011890 -0.884498 -0.172066
v 0.024270 -0.666379 -0.103511
v 0.024270 -0.672438 -0.044000
v 0.024270 -0.774291 -0.146470
v 0.024270 -0.780350 -0.044000
v 0.024270 -0.884498 -0.172066
v 0.026867 -0.572213 -0.010157
v 0.012637 0.062428 -0.010157
v 0.040632 -0.572213 -0.010157
v 0.026402 0.062428 -0.010157
v 0.011890 -0.893964 0.011731
v 0.011890 -0.575051 -0.000000
v 0.024270 -0.893964 0.011731
v 0.024270 -0.575051 -0.000000
v 0.011890 -0.919183 0.011779
v 0.011890 -0.575051 -0.000000
v 0.024270 -0.919183 0.011779
v 0.024270 -0.575051 -0.000000
v 0.011890 -0.666379 0.103511
v 0.011890 -0.672438 0.044000
v 0.011890 -0.774291 0.146470
v 0.011890 -0.780350 0.044000
v 0.011890 -0.884498 0.172066
v 0.024270 -0.666379 0.103511
v 0.024270 -0.672438 0.044000
v 0.024270 -0.774291 0.146470
v 0.024270 -0.780350 0.044000
v 0.024270 -0.884498 0.172066
v 0.024270 -0.666379 -0.000000
v 0.024270 -0.689761 -0.000000
v 0.024270 -0.774291 -0.000000
v 0.024270 -0.816883 -0.000000
v 0.024270 -0.884498 -0.000000
v 0.011890 -0.666379 -0.000000
v 0.011890 -0.689761 -0.000000
v 0.011890 -0.774291 -0.000000
v 0.011890 -0.816883 -0.000000
v 0.011890 -0.884498 -0.000000
v 0.026867 -0.572213 0.010157
v 0.012637 0.062428 0.010157
v 0.040632 -0.572213 0.010157
v 0.026402 0.062428 0.010157
v 0.011890 -0.919183 -0.000000
v 0.024270 -0.919183 -0.000000
v 0.026867 -0.572213 -0.000000
v 0.012637 0.062428 -0.000000
v 0.040632 -0.572213 -0.000000
v 0.026402 0.062428 -0.000000
v 0.040632 -0.585169 -0.010157
v 0.026867 -0.585169 -0.010157
v 0.040632 -0.585169 -0.000000
v 0.026867 -0.585169 -0.000000
v 0.040632 -0.585169 0.010157
v 0.026867 -0.585169 0.010157
v 0.033280 -0.600623 -0.010157
v 0.023786 -0.590656 -0.010157
v 0.033280 -0.600623 -0.000000
v 0.023786 -0.590656 -0.000000
v 0.033280 -0.600623 0.010157
v 0.023786 -0.590656 0.010157
v -0.003862 -0.597634 -0.010157
v 0.006394 -0.588453 -0.010157
v -0.003862 -0.597634 -0.000000
v 0.006394 -0.588453 -0.000000
v -0.003862 -0.597634 0.010157
v 0.006394 -0.588453 0.010157
v 0.000298 -0.566458 -0.010157
v 0.009760 -0.576456 -0.010157
v 0.000298 -0.566458 -0.000000
v 0.009760 -0.576456 -0.000000
v 0.000298 -0.566458 0.010157
v 0.009760 -0.576456 0.010157
v 0.025481 -0.542628 -0.010157
v 0.034942 -0.552626 -0.010157
v 0.025481 -0.542628 -0.000000
v 0.034942 -0.552626 -0.000000
v 0.025481 -0.542628 0.010157
v 0.034942 -0.552626 0.010157
vt 0.583333 0.125000
vt 0.625000 0.125000
vt 0.625000 0.250000
vt 0.583333 0.250000
vt 0.625000 0.500000
vt 0.583333 0.500000
vt 0.125000 0.500000
vt 0.375000 0.500000
vt 0.375000 0.625000
vt 0.125000 0.625000
vt 0.625000 0.625000
vt 0.583333 0.625000
vt 0.375000 0.116991
vt 0.416667 0.125000
vt 0.375000 0.125000
vt 0.416667 0.500000
vt 0.416667 0.625000
vt 0.458333 0.500000
vt 0.458333 0.625000
vt 0.500000 0.500000
vt 0.500000 0.625000
vt 0.541667 0.500000
vt 0.541667 0.625000
vt 0.375000 0.250000
vt 0.416667 0.250000
vt 0.458333 0.250000
vt 0.500000 0.250000
vt 0.541667 0.250000
vt 0.458333 0.125000
vt 0.500000 0.125000
vt 0.541667 0.125000
vt 0.375000 0.633009
vt 0.125000 0.633009
vt 0.583333 0.250000
vt 0.583333 0.500000
vt 0.875000 0.625000
vt 0.875000 0.500000
vt 0.125000 0.500000
vt 0.125000 0.625000
vt 0.375000 0.625000
vt 0.375000 0.500000
vt 0.375000 0.125000
vt 0.416667 0.500000
vt 0.458333 0.500000
vt 0.500000 0.500000
vt 0.541667 0.500000
vt 0.375000 0.250000
vt 0.416667 0.250000
vt 0.458333 0.250000
vt 0.500000 0.250000
vt 0.541667 0.250000
vt 0.125000 0.500000
vt 0.375000 0.500000
vt 0.375000 0.684462
vt 0.125000 0.684462
vt 0.125000 0.500000
vt 0.375000 0.500000
vt 0.375000 0.065538
vt 0.625000 0.065538
vt 0.625000 0.250000
vt 0.375000 0.250000
vt 0.625000 0.500000
vt 0.375000 0.500000
vt 0.625000 0.684462
vt 0.375000 0.684462
vt 0.875000 0.500000
vt 0.875000 0.684462
vt 0.375000 0.500000
vt 0.375000 0.250000
vt 0.375000 0.250000
vt 0.625000 0.250000
vt 0.375000 0.500000
vt 0.625000 0.500000
vt 0.875000 0.500000
vt 0.375000 0.065538
vt 0.375000 0.250000
vt 0.375000 0.500000
vt 0.375000 0.250000
vt 0.375000 0.065538
vt 0.375000 0.500000
vt 0.375000 0.684462
vt 0.375000 0.250000
vt 0.375000 0.065538
vt 0.375000 0.250000
vt 0.375000 0.684462
vt 0.375000 0.684462
vt 0.375000 0.500000
vt 0.375000 0.500000
vt 0.375000 0.500000
vt 0.375000 0.500000
vt 0.375000 0.684462
vt 0.375000 0.250000
vt 0.375000 0.500000
vt 0.375000 0.250000
vt 0.375000 0.250000
vt 0.375000 0.250000
vt 0.375000 0.065538
vt 0.375000 0.065538
vt 0.375000 0.250000
vn -1.0000 0.0000 0.0000
vn 0.0000 0.7499 -0.6616
vn 0.0000 0.0019 -1.0000
vn 1.0000 0.0000 0.0000
vn 0.0000 -0.9983 -0.0589
vn 0.0000 0.7758 -0.6309
vn 0.0000 -0.9983 -0.0590
vn 0.0000 0.7092 -0.7050
vn 0.0000 -0.9949 -0.1013
vn 0.0000 -1.0000 0.0000
vn 0.0000 0.7499 0.6616
vn 0.0000 0.0000 1.0000
vn 0.0000 0.0019 1.0000
vn 0.0000 -0.9983 0.0589
vn 0.0000 0.7758 0.6309
vn 0.0000 -0.9983 0.0590
vn 0.0000 0.7092 0.7050
vn 0.0000 -0.9949 0.1013
vn 0.7263 0.6873 0.0000
vn -0.9997 -0.0224 0.0000
vn 0.0000 0.0000 -1.0000
vn 0.9997 0.0224 0.0000
vn 0.0000 1.0000 0.0000
vn -0.8719 0.4897 0.0000
vn 0.1257 0.9921 0.0000
vn -0.0802 -0.9968 0.0000
vn 0.9030 -0.4296 0.0000
vn -0.9912 0.1323 0.0000
vn 0.6873 -0.7263 0.0000
vn 0.9628 -0.2701 0.0000
vn -0.6873 0.7263 0.0000
g Cube.006_Cube.058_Cucumber
usemtl Cucumber
s off
f 42/1/1 24/2/1 20/3/1 5/4/1
f 5/4/2 20/3/2 22/5/2 10/6/2
f 1/7/3 2/8/3 4/9/3 3/10/3
f 10/6/4 22/5/4 26/11/4 37/12/4
f 51/13/1 46/14/1 3/15/1
f 2/8/4 14/16/4 41/17/4 4/9/4
f 14/16/4 13/18/4 40/19/4 41/17/4
f 13/18/4 12/20/4 39/21/4 40/19/4
f 12/20/4 11/22/4 38/23/4 39/21/4
f 11/22/4 10/6/4 37/12/4 38/23/4
f 1/24/5 9/25/5 14/16/5 2/8/5
f 9/25/6 8/26/6 13/18/6 14/16/6
f 8/26/7 7/27/7 12/20/7 13/18/7
f 7/27/8 6/28/8 11/22/8 12/20/8
f 6/28/9 5/4/9 10/6/9 11/22/9
f 3/15/1 46/14/1 9/25/1 1/24/1
f 46/14/1 45/29/1 8/26/1 9/25/1
f 45/29/1 44/30/1 7/27/1 8/26/1
f 44/30/1 43/31/1 6/28/1 7/27/1
f 43/31/1 42/1/1 5/4/1 6/28/1
f 4/9/4 41/17/4 52/32/4
f 3/10/10 4/9/10 52/32/10 51/33/10
f 42/1/1 27/34/1 20/3/1 24/2/1
f 27/34/11 32/35/11 22/5/11 20/3/11
f 22/5/12 26/11/12 24/36/12 20/37/12
f 19/38/13 23/39/13 25/40/13 21/41/13
f 32/35/4 37/12/4 26/11/4 22/5/4
f 51/13/1 23/42/1 46/14/1
f 21/41/4 25/40/4 41/17/4 36/43/4
f 36/43/4 41/17/4 40/19/4 35/44/4
f 35/44/4 40/19/4 39/21/4 34/45/4
f 34/45/4 39/21/4 38/23/4 33/46/4
f 33/46/4 38/23/4 37/12/4 32/35/4
f 19/47/14 21/41/14 36/43/14 31/48/14
f 31/48/15 36/43/15 35/44/15 30/49/15
f 30/49/16 35/44/16 34/45/16 29/50/16
f 29/50/17 34/45/17 33/46/17 28/51/17
f 28/51/18 33/46/18 32/35/18 27/34/18
f 23/42/1 19/47/1 31/48/1 46/14/1
f 46/14/1 31/48/1 30/49/1 45/29/1
f 45/29/1 30/49/1 29/50/1 44/30/1
f 44/30/1 29/50/1 28/51/1 43/31/1
f 43/31/1 28/51/1 27/34/1 42/1/1
f 25/40/4 52/32/4 41/17/4
f 23/39/10 51/33/10 52/32/10 25/40/10
f 82/52/19 81/53/19 83/54/19 84/55/19
f 86/56/19 84/55/19 83/54/19 85/57/19
g Cube.006_Cube.058_Material.001
usemtl Material.001
f 53/58/20 54/59/20 16/60/20 15/61/20
f 15/61/21 16/60/21 18/62/21 17/63/21
f 17/63/22 18/62/22 56/64/22 55/65/22
f 18/62/23 16/66/23 54/67/23 56/64/23
f 15/61/21 17/63/21 57/68/21 58/69/21
f 53/58/20 47/70/20 48/71/20 54/59/20
f 47/70/12 49/72/12 50/73/12 48/71/12
f 49/72/22 55/65/22 56/64/22 50/73/22
f 50/73/23 56/64/23 54/67/23 48/74/23
f 47/70/1 53/58/1 60/75/1 62/76/1
f 58/69/21 57/68/21 63/77/21 64/78/21
f 60/75/24 58/69/24 64/78/24 66/79/24
f 55/65/4 49/72/4 61/80/4 59/81/4
f 53/58/1 15/61/1 58/69/1 60/75/1
f 17/63/4 55/65/4 59/81/4 57/68/4
f 49/72/12 47/70/12 62/76/12 61/80/12
f 68/82/25 66/79/25 72/83/25 74/84/25
f 63/77/26 65/85/26 71/86/26 69/87/26
f 59/81/27 61/80/27 67/88/27 65/85/27
f 57/68/27 59/81/27 65/85/27 63/77/27
f 62/76/24 60/75/24 66/79/24 68/82/24
f 61/80/12 62/76/12 68/82/12 67/88/12
f 71/86/28 73/89/28 79/90/28 77/91/28
f 70/92/21 69/87/21 75/93/21 76/94/21
f 67/88/12 68/82/12 74/84/12 73/89/12
f 66/79/25 64/78/25 70/92/25 72/83/25
f 64/78/21 63/77/21 69/87/21 70/92/21
f 65/85/26 67/88/26 73/89/26 71/86/26
f 79/90/12 80/95/12 86/96/12 85/57/12
f 80/95/29 78/97/29 84/98/29 86/96/29
f 69/87/28 71/86/28 77/91/28 75/93/28
f 74/84/30 72/83/30 78/97/30 80/95/30
f 73/89/12 74/84/12 80/95/12 79/90/12
f 72/83/30 70/92/30 76/94/30 78/97/30
f 78/97/29 76/94/29 82/99/29 84/98/29
f 76/94/21 75/93/21 81/53/21 82/99/21
f 77/91/31 79/90/31 85/57/31 83/54/31
f 75/93/31 77/91/31 83/54/31 81/53/31
