# Blender v2.81 (sub 16) OBJ File: 'LudumDare_47.blend'
# www.blender.org
o Broom_Cube.047
v -0.077093 -0.024344 0.265846
v -0.097179 0.024344 0.302200
v -0.077093 -0.024344 -0.265846
v -0.097179 0.024344 -0.302200
v 0.077093 -0.024344 0.265846
v 0.097179 0.024344 0.302200
v 0.077093 -0.024344 -0.265846
v 0.097179 0.024344 -0.302200
v -0.042013 0.009130 0.037788
v -0.042013 2.002082 0.037788
v -0.042013 0.009130 -0.037788
v -0.042013 2.002082 -0.037788
v 0.042013 0.009130 0.037788
v 0.042013 2.002082 0.037788
v 0.042013 0.009130 -0.037788
v 0.042013 2.002082 -0.037788
v -0.097179 -0.024344 -0.302200
v -0.097179 -0.024344 0.302200
v 0.097179 -0.024344 -0.302200
v 0.097179 -0.024344 0.302200
v -0.082514 -0.164371 -0.284538
v -0.082514 -0.164371 0.284538
v 0.082514 -0.164371 -0.284538
v 0.082514 -0.164371 0.284538
vt 0.375000 0.000000
vt 0.625000 0.000000
vt 0.625000 0.250000
vt 0.375000 0.250000
vt 0.625000 0.500000
vt 0.375000 0.500000
vt 0.625000 0.750000
vt 0.375000 0.750000
vt 0.625000 1.000000
vt 0.375000 1.000000
vt 0.359963 0.515037
vt 0.359963 0.734963
vt 0.359963 0.734963
vt 0.359963 0.515037
vt 0.875000 0.500000
vt 0.875000 0.750000
vt 0.375000 0.000000
vt 0.625000 0.000000
vt 0.625000 0.250000
vt 0.375000 0.250000
vt 0.625000 0.500000
vt 0.375000 0.500000
vt 0.625000 0.750000
vt 0.375000 0.750000
vt 0.625000 1.000000
vt 0.375000 1.000000
vt 0.125000 0.500000
vt 0.125000 0.750000
vt 0.875000 0.500000
vt 0.875000 0.750000
vt 0.140037 0.515037
vt 0.140037 0.734963
vt 0.125000 0.750000
vt 0.125000 0.500000
vt 0.140037 0.515037
vt 0.140037 0.734963
vn -1.0000 0.0000 0.0000
vn 0.0000 0.0000 -1.0000
vn 1.0000 0.0000 0.0000
vn 0.0000 0.0000 1.0000
vn 0.9993 0.0387 0.0000
vn 0.0000 1.0000 0.0000
vn 0.0000 -1.0000 0.0000
vn -0.9993 0.0387 0.0000
vn 0.0000 0.1323 0.9912
vn 0.0000 0.1323 -0.9912
g Broom_Cube.047_None
s off
f 18/1/1 2/2/1 4/3/1 17/4/1
f 17/4/2 4/3/2 8/5/2 19/6/2
f 19/6/3 8/5/3 6/7/3 20/8/3
f 20/8/4 6/7/4 2/9/4 18/10/4
f 7/11/5 5/12/5 24/13/5 23/14/5
f 8/5/6 4/15/6 2/16/6 6/7/6
f 9/17/1 10/18/1 12/19/1 11/20/1
f 11/20/2 12/19/2 16/21/2 15/22/2
f 15/22/3 16/21/3 14/23/3 13/24/3
f 13/24/4 14/23/4 10/25/4 9/26/4
f 11/27/7 15/22/7 13/24/7 9/28/7
f 16/21/6 12/29/6 10/30/6 14/23/6
f 3/31/7 1/32/7 18/33/7 17/34/7
f 7/11/7 3/31/7 17/34/7 19/6/7
f 5/12/7 7/11/7 19/6/7 20/8/7
f 1/32/7 5/12/7 20/8/7 18/33/7
f 21/35/7 23/14/7 24/13/7 22/36/7
f 1/32/8 3/31/8 21/35/8 22/36/8
f 5/12/9 1/32/9 22/36/9 24/13/9
f 3/31/10 7/11/10 23/14/10 21/35/10
