# Blender v2.81 (sub 16) OBJ File: 'LudumDare_47.blend'
# www.blender.org
o Corridor_Corner_Cube.005
v 3.000000 0.000000 2.500000
v 3.000000 0.500000 3.000000
v 2.500000 0.000000 3.000000
v 3.000000 0.000000 -2.500000
v -2.500000 0.000000 3.000000
v -3.000000 0.500000 3.000000
v 3.000000 3.500000 3.000000
v 3.000000 0.500000 -3.000000
v -3.000000 3.500000 3.000000
v 3.000000 4.000000 2.492272
v 2.500000 4.000000 3.000000
v -2.500000 4.000000 3.000000
v 3.000000 3.500000 -3.000000
v 3.000000 4.000000 -2.500000
v -1.024294 0.000000 -2.500000
v -2.500000 0.000000 -1.024294
v -1.529181 0.500000 -3.000000
v -3.000000 0.500000 -1.529181
v -1.529181 3.500000 -3.000000
v -3.000000 3.500000 -1.529181
v -2.500000 4.000000 -1.024294
v -1.024294 4.000000 -2.500000
vt 0.625000 0.500000
vt 0.625000 0.750000
vt 0.625000 0.500000
vt 0.875000 0.500000
vt 0.875000 0.500000
vt 0.875000 0.500000
vt 0.875000 0.500000
vt 0.875000 0.500000
vt 0.875000 0.500000
vt 0.875000 0.750000
vt 0.875000 0.561284
vt 0.875000 0.567078
vt 0.875000 0.750000
vt 0.625000 0.750000
vt 0.625000 0.750000
vt 0.625000 0.500000
vt 0.875000 0.500000
vt 0.875000 0.500000
vt 0.875000 0.567078
vt 0.875000 0.750000
vt 0.875000 0.750000
vt 0.875000 0.561284
vn -0.5774 0.5774 -0.5774
vn 0.0000 0.7071 0.7071
vn 0.0000 0.0000 1.0000
vn 0.7071 -0.7071 0.0000
vn 0.0000 1.0000 0.0000
vn -0.5803 -0.5803 -0.5714
vn 0.0000 -1.0000 0.0000
vn 0.0000 -0.7071 0.7071
vn 1.0000 0.0000 0.0000
vn 0.4069 0.8178 0.4069
vn 0.7071 0.0000 0.7071
vn 0.4069 -0.8178 0.4069
vn 0.7071 0.7071 0.0000
s off
f 1/1/1 3/2/1 2/3/1
f 17/4/2 15/5/2 4/6/2 8/7/2
f 19/8/3 17/4/3 8/7/3 13/9/3
f 9/10/4 20/11/4 21/12/4 12/13/4
f 4/6/5 15/5/5 1/1/5
f 7/14/6 11/15/6 10/16/6
f 12/13/7 21/12/7 11/15/7
f 22/17/8 19/8/8 13/9/8 14/18/8
f 3/2/5 16/19/5 5/20/5
f 6/21/9 18/22/9 20/11/9 9/10/9
f 1/1/5 15/5/5 16/19/5 3/2/5
f 10/16/7 11/15/7 21/12/7 22/17/7
f 15/5/10 17/4/10 18/22/10 16/19/10
f 17/4/11 19/8/11 20/11/11 18/22/11
f 19/8/12 22/17/12 21/12/12 20/11/12
f 5/20/13 16/19/13 18/22/13 6/21/13
f 14/18/7 10/16/7 22/17/7
l 7 2
