# Blender v2.81 (sub 16) OBJ File: 'LudumDare_47.blend'
# www.blender.org
o Corridor_Floor_Intersection_Cube.026
v 2.500000 0.000000 -3.000000
v 3.000000 0.500000 -3.000000
v 2.500000 0.000000 3.000000
v 3.000000 0.500000 3.000000
v -2.500000 0.000000 -3.000000
v -2.500000 0.000000 3.000000
v -3.000000 0.500000 -3.000000
v -3.000000 0.500000 3.000000
v 3.000000 3.500000 -3.000000
v 3.000000 3.500000 3.000000
v -3.000000 3.500000 -3.000000
v -3.000000 3.500000 3.000000
v 2.500000 4.000000 -3.000000
v 2.500000 4.000000 3.000000
v -2.500000 4.000000 -3.000000
v -2.500000 4.000000 3.000000
v 1.500000 0.000000 1.500000
v -1.500000 0.000000 1.500000
v 1.500000 0.000000 -1.500000
v -1.500000 0.000000 -1.500000
v 1.499999 4.000000 1.500000
v 1.499999 4.000000 -1.500000
v -1.499999 4.000000 -1.500000
v -1.499999 4.000000 1.500000
vt 0.625000 0.500000
vt 0.625000 0.750000
vt 0.625000 0.750000
vt 0.625000 0.500000
vt 0.875000 0.750000
vt 0.875000 0.500000
vt 0.875000 0.500000
vt 0.875000 0.750000
vt 0.875000 0.500000
vt 0.875000 0.750000
vt 0.625000 0.750000
vt 0.625000 0.500000
vt 0.875000 0.500000
vt 0.875000 0.750000
vt 0.625000 0.750000
vt 0.625000 0.500000
vt 0.679470 0.704608
vt 0.820530 0.704608
vt 0.679470 0.545392
vt 0.820530 0.545392
vt 0.636294 0.740588
vt 0.636294 0.509412
vt 0.863706 0.509412
vt 0.863706 0.740588
vn -0.7071 0.7071 0.0000
vn 0.7071 0.7071 0.0000
vn 1.0000 0.0000 0.0000
vn -1.0000 0.0000 0.0000
vn 0.7071 -0.7071 0.0000
vn -0.7071 -0.7071 0.0000
vn -0.0000 1.0000 0.0000
vn 0.0000 -1.0000 0.0000
s off
f 1/1/1 3/2/1 4/3/1 2/4/1
f 6/5/2 5/6/2 7/7/2 8/8/2
f 8/8/3 7/7/3 11/9/3 12/10/3
f 2/4/4 4/3/4 10/11/4 9/12/4
f 12/10/5 11/9/5 15/13/5 16/14/5
f 9/12/6 10/11/6 14/15/6 13/16/6
f 17/17/7 18/18/7 6/5/7 3/2/7
f 19/19/7 17/17/7 3/2/7 1/1/7
f 18/18/7 20/20/7 5/6/7 6/5/7
f 20/20/7 19/19/7 1/1/7 5/6/7
f 21/21/8 22/22/8 13/16/8 14/15/8
f 23/23/8 24/24/8 16/14/8 15/13/8
f 24/24/8 21/21/8 14/15/8 16/14/8
f 22/22/8 23/23/8 15/13/8 13/16/8
