# Blender v2.81 (sub 16) OBJ File: 'LudumDare_47.blend'
# www.blender.org
mtllib Cucumber.mtl
o Cube.004_Cube.057
v -0.027432 -0.443354 0.097127
v -0.032091 0.458170 0.116402
v -0.027432 -0.443354 0.042263
v -0.032091 0.458170 0.052220
v 0.027432 -0.443354 0.099108
v 0.032091 0.458170 0.119051
v 0.027432 -0.443354 0.044244
v 0.032091 0.458170 0.054868
v -0.057299 0.338852 0.161191
v -0.057299 0.338852 0.046594
v 0.057299 0.338852 0.052210
v 0.057299 0.338852 0.166807
v -0.055746 -0.284331 0.042464
v 0.055746 -0.284331 0.047676
v 0.055746 -0.284331 0.159167
v -0.055746 -0.284331 0.153956
v -0.062135 0.171656 0.186936
v -0.062135 0.171656 0.062665
v 0.062135 0.171656 0.070014
v 0.062135 0.171656 0.194285
v -0.062135 -0.086721 0.062334
v 0.062135 -0.086721 0.069657
v 0.062135 -0.086721 0.193928
v -0.062135 -0.086721 0.186604
v -0.031476 -0.455767 0.067123
v -0.046560 0.411818 0.138632
v -0.037634 0.467336 0.082423
v -0.042413 -0.380904 0.038843
v 0.000000 -0.455767 0.036751
v -0.000000 0.467336 0.046309
v 0.042413 -0.380904 0.042264
v 0.031476 -0.455767 0.069343
v 0.037634 0.467336 0.085484
v 0.042413 -0.380904 0.127089
v 0.000000 -0.455767 0.099703
v 0.000000 0.467336 0.121578
v -0.061531 0.264467 0.176120
v -0.046560 0.411818 0.045513
v 0.046560 0.411818 0.049636
v 0.046560 0.411818 0.142755
v 0.000000 0.338852 0.185558
v 0.078786 0.338852 0.110697
v 0.000000 0.338852 0.027986
v -0.078786 0.338852 0.102967
v -0.061337 -0.191035 0.051157
v 0.061337 -0.191035 0.057628
v 0.061337 -0.191035 0.180302
v -0.042413 -0.380904 0.123668
v -0.076650 -0.284331 0.097347
v 0.000000 -0.284331 0.024231
v 0.076650 -0.284331 0.104519
v 0.000000 -0.284331 0.177531
v -0.062135 0.044393 0.192491
v -0.061531 0.264467 0.053059
v 0.061531 0.264467 0.059669
v 0.061531 0.264467 0.182731
v -0.085436 0.171656 0.123618
v -0.000000 0.171656 0.043118
v 0.085436 0.171656 0.133748
v 0.000000 0.171656 0.213990
v -0.062135 0.044393 0.068220
v 0.062135 0.044393 0.076069
v 0.062135 0.044393 0.200340
v -0.061337 -0.191035 0.173830
v 0.000000 -0.086721 0.213646
v 0.085436 -0.086721 0.133385
v -0.000000 -0.086721 0.042774
v -0.085436 -0.086721 0.123290
v -0.063744 0.412722 0.091227
v 0.000000 0.412722 0.030270
v 0.063744 0.412722 0.096868
v -0.000000 0.412722 0.157759
v 0.000000 -0.481817 0.063047
v -0.000000 0.486573 0.080374
v 0.000000 0.264467 0.202584
v 0.084605 0.264467 0.122618
v -0.000000 0.264467 0.033374
v -0.084605 0.264467 0.113515
v -0.057934 -0.382128 0.080455
v 0.000000 -0.382128 0.024830
v 0.057934 -0.382128 0.085121
v 0.000000 -0.382128 0.140698
v -0.085436 0.044393 0.129108
v 0.000000 0.044393 0.048900
v 0.085436 0.044392 0.139972
v -0.000000 0.044393 0.219772
v 0.000000 -0.191035 0.200151
v 0.084338 -0.191035 0.120351
v -0.000000 -0.191035 0.031475
v -0.084338 -0.191035 0.111440
vt 0.603601 0.000000
vt 0.617264 0.000000
vt 0.617264 0.125000
vt 0.603601 0.125000
vt 0.625000 0.000000
vt 0.625000 0.125000
vt 0.625000 0.250000
vt 0.617264 0.250000
vt 0.603601 0.250000
vt 0.618132 0.374132
vt 0.603601 0.375000
vt 0.630208 0.369792
vt 0.666667 0.458333
vt 0.621557 0.496528
vt 0.603601 0.500000
vt 0.622284 0.625000
vt 0.603601 0.625000
vt 0.664792 0.625000
vt 0.666667 0.791667
vt 0.621557 0.753472
vt 0.603601 0.750000
vt 0.618132 0.875868
vt 0.603601 0.875000
vt 0.630208 0.880208
vt 0.625000 1.000000
vt 0.617264 1.000000
vt 0.603601 1.000000
vt 0.125000 0.500000
vt 0.244792 0.494792
vt 0.245045 0.625000
vt 0.125000 0.625000
vt 0.333333 0.458333
vt 0.335866 0.625000
vt 0.333333 0.791667
vt 0.244792 0.755208
vt 0.125000 0.750000
vt 0.755208 0.494792
vt 0.755021 0.625000
vt 0.875000 0.500000
vt 0.875000 0.625000
vt 0.875000 0.750000
vt 0.755208 0.755208
vt 0.547636 0.750000
vt 0.579693 0.750000
vt 0.579693 0.875000
vt 0.547636 0.875000
vt 0.579693 1.000000
vt 0.547636 1.000000
vt 0.547636 0.500000
vt 0.579693 0.500000
vt 0.579693 0.625000
vt 0.547636 0.625000
vt 0.547636 0.250000
vt 0.579693 0.250000
vt 0.579693 0.375000
vt 0.547636 0.375000
vt 0.547636 0.000000
vt 0.579693 0.000000
vt 0.579693 0.125000
vt 0.547636 0.125000
vt 0.375000 0.000000
vt 0.385378 0.000000
vt 0.385378 0.125000
vt 0.375000 0.125000
vt 0.403312 0.000000
vt 0.403312 0.125000
vt 0.403312 0.250000
vt 0.385378 0.250000
vt 0.375000 0.250000
vt 0.384510 0.374132
vt 0.369792 0.369792
vt 0.403312 0.375000
vt 0.403312 0.500000
vt 0.381101 0.496528
vt 0.380423 0.625000
vt 0.403312 0.625000
vt 0.403312 0.750000
vt 0.381101 0.753472
vt 0.384510 0.875868
vt 0.369792 0.880208
vt 0.403312 0.875000
vt 0.403312 1.000000
vt 0.385378 1.000000
vt 0.375000 1.000000
vt 0.471918 0.000000
vt 0.510888 0.000000
vt 0.510888 0.125000
vt 0.471918 0.125000
vt 0.510888 0.250000
vt 0.471918 0.250000
vt 0.510888 0.375000
vt 0.471918 0.375000
vt 0.510888 0.500000
vt 0.471918 0.500000
vt 0.510888 0.625000
vt 0.471918 0.625000
vt 0.510888 0.750000
vt 0.471918 0.750000
vt 0.510888 0.875000
vt 0.471918 0.875000
vt 0.510888 1.000000
vt 0.471918 1.000000
vt 0.433837 0.750000
vt 0.433837 0.875000
vt 0.433837 1.000000
vt 0.433837 0.500000
vt 0.433837 0.625000
vt 0.433837 0.250000
vt 0.433837 0.375000
vt 0.433837 0.000000
vt 0.433837 0.125000
vn -0.9113 0.2384 0.3357
vn -0.8531 0.4325 0.2918
vn -0.8841 0.3489 -0.3110
vn -0.9266 0.1319 -0.3522
vn -0.3100 0.0305 -0.9503
vn -0.2811 0.2491 -0.9268
vn 0.3520 0.2410 -0.9045
vn 0.3871 0.0265 -0.9217
vn 0.9314 0.1253 -0.3418
vn 0.8903 0.3393 -0.3038
vn 0.8454 0.4433 0.2980
vn 0.9051 0.2480 0.3454
vn 0.2936 0.3373 0.8944
vn 0.2487 0.5202 0.8170
vn -0.3130 0.5088 0.8020
vn -0.3676 0.3256 0.8711
vn -0.5202 -0.6623 -0.5391
vn 0.5474 -0.6488 -0.5286
vn 0.4511 -0.7602 0.4677
vn -0.4770 -0.7485 0.4608
vn 0.4119 0.8208 -0.3957
vn -0.3845 0.8316 -0.4007
vn -0.3666 0.8611 0.3523
vn 0.3412 0.8700 0.3558
vn 0.3025 0.1180 0.9458
vn 0.3018 0.2143 0.9290
vn -0.3850 0.2043 0.9000
vn -0.3947 0.1105 0.9121
vn 0.9386 -0.0325 -0.3436
vn 0.9386 0.0185 -0.3444
vn 0.9259 0.1290 0.3550
vn 0.9322 0.0510 0.3583
vn -0.3009 -0.0979 -0.9486
vn -0.3060 -0.0670 -0.9497
vn 0.3903 -0.0682 -0.9181
vn 0.3932 -0.0977 -0.9142
vn -0.9374 0.0462 0.3452
vn -0.9313 0.1217 0.3434
vn -0.9341 0.0224 -0.3563
vn -0.9337 -0.0306 -0.3567
vn -0.8834 -0.3577 0.3027
vn -0.9128 -0.2321 0.3360
vn -0.9288 -0.1160 -0.3521
vn -0.9124 -0.2544 -0.3207
vn -0.2917 -0.1388 -0.9464
vn -0.3122 -0.0066 -0.9500
vn 0.3845 -0.0035 -0.9231
vn 0.3562 -0.1337 -0.9248
vn 0.9168 -0.2474 -0.3136
vn 0.9331 -0.1102 -0.3423
vn 0.9071 -0.2410 0.3451
vn 0.8776 -0.3666 0.3090
vn 0.2622 -0.4591 0.8488
vn 0.2954 -0.3372 0.8939
vn -0.3648 -0.3262 0.8721
vn -0.3217 -0.4491 0.8336
vn -0.9384 -0.0154 0.3452
vn -0.9384 0.0150 0.3452
vn -0.9339 -0.0155 -0.3572
vn -0.9339 0.0159 -0.3572
vn -0.2983 0.0437 -0.9535
vn -0.2982 -0.0425 -0.9535
vn 0.3986 -0.0426 -0.9161
vn 0.3985 0.0438 -0.9161
vn 0.9392 0.0170 -0.3429
vn 0.9392 -0.0165 -0.3429
vn 0.9329 0.0173 0.3596
vn 0.9329 -0.0178 0.3596
vn 0.3002 -0.0456 0.9528
vn 0.3001 0.0443 0.9529
vn -0.4003 0.0408 0.9155
vn -0.4002 -0.0419 0.9155
vn 0.3022 -0.2262 0.9260
vn 0.3028 -0.1240 0.9449
vn -0.3940 -0.1163 0.9117
vn -0.3828 -0.2160 0.8982
vn 0.9385 -0.0192 -0.3446
vn 0.9385 0.0328 -0.3437
vn 0.9321 -0.0542 0.3582
vn 0.9251 -0.1361 0.3544
vn -0.3073 0.0718 -0.9489
vn -0.3013 0.1010 -0.9482
vn 0.3927 0.1007 -0.9141
vn 0.3890 0.0730 -0.9183
vn -0.9304 -0.1287 0.3433
vn -0.9372 -0.0493 0.3452
vn -0.9337 0.0309 -0.3566
vn -0.9342 -0.0230 -0.3561
g Cube.004_Cube.057_Cucumber
usemtl Cucumber
s off
f 9/1/1 26/2/1 69/3/1 44/4/1
f 26/2/2 2/5/2 27/6/2 69/3/2
f 69/3/3 27/6/3 4/7/3 38/8/3
f 44/4/4 69/3/4 38/8/4 10/9/4
f 10/9/5 38/8/5 70/10/5 43/11/5
f 38/8/6 4/7/6 30/12/6 70/10/6
f 70/10/7 30/12/7 8/13/7 39/14/7
f 43/11/8 70/10/8 39/14/8 11/15/8
f 11/15/9 39/14/9 71/16/9 42/17/9
f 39/14/10 8/13/10 33/18/10 71/16/10
f 71/16/11 33/18/11 6/19/11 40/20/11
f 42/17/12 71/16/12 40/20/12 12/21/12
f 12/21/13 40/20/13 72/22/13 41/23/13
f 40/20/14 6/19/14 36/24/14 72/22/14
f 72/22/15 36/24/15 2/25/15 26/26/15
f 41/23/16 72/22/16 26/26/16 9/27/16
f 3/28/17 29/29/17 73/30/17 25/31/17
f 29/29/18 7/32/18 32/33/18 73/30/18
f 73/30/19 32/33/19 5/34/19 35/35/19
f 25/31/20 73/30/20 35/35/20 1/36/20
f 8/13/21 30/37/21 74/38/21 33/18/21
f 30/37/22 4/39/22 27/40/22 74/38/22
f 74/38/23 27/40/23 2/41/23 36/42/23
f 33/18/24 74/38/24 36/42/24 6/19/24
f 20/43/25 56/44/25 75/45/25 60/46/25
f 56/44/26 12/21/26 41/23/26 75/45/26
f 75/45/27 41/23/27 9/27/27 37/47/27
f 60/46/28 75/45/28 37/47/28 17/48/28
f 19/49/29 55/50/29 76/51/29 59/52/29
f 55/50/30 11/15/30 42/17/30 76/51/30
f 76/51/31 42/17/31 12/21/31 56/44/31
f 59/52/32 76/51/32 56/44/32 20/43/32
f 18/53/33 54/54/33 77/55/33 58/56/33
f 54/54/34 10/9/34 43/11/34 77/55/34
f 77/55/35 43/11/35 11/15/35 55/50/35
f 58/56/36 77/55/36 55/50/36 19/49/36
f 17/57/37 37/58/37 78/59/37 57/60/37
f 37/58/38 9/1/38 44/4/38 78/59/38
f 78/59/39 44/4/39 10/9/39 54/54/39
f 57/60/40 78/59/40 54/54/40 18/53/40
f 1/61/41 48/62/41 79/63/41 25/64/41
f 48/62/42 16/65/42 49/66/42 79/63/42
f 79/63/43 49/66/43 13/67/43 28/68/43
f 25/64/44 79/63/44 28/68/44 3/69/44
f 3/69/45 28/68/45 80/70/45 29/71/45
f 28/68/46 13/67/46 50/72/46 80/70/46
f 80/70/47 50/72/47 14/73/47 31/74/47
f 29/71/48 80/70/48 31/74/48 7/32/48
f 7/32/49 31/74/49 81/75/49 32/33/49
f 31/74/50 14/73/50 51/76/50 81/75/50
f 81/75/51 51/76/51 15/77/51 34/78/51
f 32/33/52 81/75/52 34/78/52 5/34/52
f 5/34/53 34/78/53 82/79/53 35/80/53
f 34/78/54 15/77/54 52/81/54 82/79/54
f 82/79/55 52/81/55 16/82/55 48/83/55
f 35/80/56 82/79/56 48/83/56 1/84/56
f 24/85/57 53/86/57 83/87/57 68/88/57
f 53/86/58 17/57/58 57/60/58 83/87/58
f 83/87/59 57/60/59 18/53/59 61/89/59
f 68/88/60 83/87/60 61/89/60 21/90/60
f 21/90/61 61/89/61 84/91/61 67/92/61
f 61/89/62 18/53/62 58/56/62 84/91/62
f 84/91/63 58/56/63 19/49/63 62/93/63
f 67/92/64 84/91/64 62/93/64 22/94/64
f 22/94/65 62/93/65 85/95/65 66/96/65
f 62/93/66 19/49/66 59/52/66 85/95/66
f 85/95/67 59/52/67 20/43/67 63/97/67
f 66/96/68 85/95/68 63/97/68 23/98/68
f 23/98/69 63/97/69 86/99/69 65/100/69
f 63/97/70 20/43/70 60/46/70 86/99/70
f 86/99/71 60/46/71 17/48/71 53/101/71
f 65/100/72 86/99/72 53/101/72 24/102/72
f 15/77/73 47/103/73 87/104/73 52/81/73
f 47/103/74 23/98/74 65/100/74 87/104/74
f 87/104/75 65/100/75 24/102/75 64/105/75
f 52/81/76 87/104/76 64/105/76 16/82/76
f 14/73/77 46/106/77 88/107/77 51/76/77
f 46/106/78 22/94/78 66/96/78 88/107/78
f 88/107/79 66/96/79 23/98/79 47/103/79
f 51/76/80 88/107/80 47/103/80 15/77/80
f 13/67/81 45/108/81 89/109/81 50/72/81
f 45/108/82 21/90/82 67/92/82 89/109/82
f 89/109/83 67/92/83 22/94/83 46/106/83
f 50/72/84 89/109/84 46/106/84 14/73/84
f 16/65/85 64/110/85 90/111/85 49/66/85
f 64/110/86 24/85/86 68/88/86 90/111/86
f 90/111/87 68/88/87 21/90/87 45/108/87
f 49/66/88 90/111/88 45/108/88 13/67/88
