# Blender v2.81 (sub 16) OBJ File: 'LudumDare_47.blend'
# www.blender.org
o FridgeDoor_Cylinder.001
v -0.023318 0.724844 -0.080000
v -0.023318 1.154845 -0.080000
v 0.045964 0.724844 -0.040000
v 0.045964 1.154845 -0.040000
v 0.045964 0.724844 0.040000
v 0.045964 1.154845 0.040000
v -0.023318 0.724844 0.080000
v -0.023318 1.154845 0.080000
v -0.092600 0.724844 0.040000
v -0.092600 1.154845 0.040000
v -0.092600 0.724844 -0.040000
v -0.092600 1.154845 -0.040000
v -0.007583 0.152649 2.999998
v -0.007583 0.152649 -0.000002
v -0.007583 4.059279 2.651537
v -0.007583 4.152649 2.303075
v -0.007583 3.804188 2.906628
v -0.007583 3.455726 2.999998
v -0.007583 4.152649 0.696921
v -0.007583 4.059279 0.348460
v -0.007583 3.804188 0.093368
v -0.007583 3.455726 -0.000002
v 0.116716 0.191797 0.039146
v 0.077569 0.152649 -0.000002
v 0.077568 0.152649 2.999998
v 0.116716 0.191797 2.960851
v 0.077569 3.455726 -0.000002
v 0.116716 3.450572 0.039146
v 0.116716 4.113502 0.702075
v 0.077569 4.152649 0.696921
v 0.077569 3.804188 0.093368
v 0.116716 3.783924 0.128467
v 0.077569 4.059279 0.348460
v 0.116716 4.024180 0.368724
v 0.077568 4.152649 2.303075
v 0.116716 4.113502 2.297922
v 0.116716 3.450572 2.960851
v 0.077568 3.455726 2.999998
v 0.116716 4.024180 2.631273
v 0.077568 4.059279 2.651537
v 0.116716 3.783924 2.871530
v 0.077568 3.804188 2.906628
v 0.209089 2.374799 2.550182
v 0.209089 1.862116 2.550182
v 0.209089 2.374799 2.656695
v 0.209089 1.862116 2.656695
v 0.043960 2.374799 2.550182
v 0.043960 1.862116 2.550182
v 0.043960 2.374799 2.656695
v 0.043960 1.862116 2.656695
v 0.279117 2.303047 2.656695
v 0.279117 1.933867 2.656695
v 0.279117 2.303047 2.550182
v 0.279117 1.933867 2.550182
v 0.043960 2.303047 2.550182
v 0.043960 1.933867 2.550182
v 0.043960 1.933867 2.656695
v 0.043960 2.303047 2.656695
v 0.279117 2.288943 2.656695
v 0.279117 1.947971 2.656695
v 0.279117 2.288943 2.550182
v 0.279117 1.947971 2.550182
v 0.207187 2.288943 2.550182
v 0.207187 1.947971 2.550182
v 0.207187 1.947971 2.656695
v 0.207187 2.288943 2.656695
v -0.023318 2.634143 -0.080000
v -0.023318 3.064144 -0.080000
v 0.045964 2.634143 -0.040000
v 0.045964 3.064144 -0.040000
v 0.045964 2.634143 0.040000
v 0.045964 3.064144 0.040000
v -0.023318 2.634143 0.080000
v -0.023318 3.064144 0.080000
v -0.092600 2.634143 0.040000
v -0.092600 3.064144 0.040000
v -0.092600 2.634143 -0.040000
v -0.092600 3.064144 -0.040000
vt 1.000000 0.500000
vt 1.000000 1.000000
vt 0.833333 1.000000
vt 0.833333 0.500000
vt 0.666667 1.000000
vt 0.666667 0.500000
vt 0.500000 1.000000
vt 0.500000 0.500000
vt 0.333333 1.000000
vt 0.333333 0.500000
vt 0.457846 0.370000
vt 0.250000 0.490000
vt 0.042154 0.370000
vt 0.042154 0.130000
vt 0.250000 0.010000
vt 0.457846 0.130000
vt 0.166667 1.000000
vt 0.166667 0.500000
vt -0.000000 1.000000
vt -0.000000 0.500000
vt 0.750000 0.490000
vt 0.957846 0.370000
vt 0.957846 0.130000
vt 0.750000 0.010000
vt 0.542154 0.130000
vt 0.542154 0.370000
vt 0.375000 0.000000
vt 0.375000 0.000000
vt 0.581442 0.000000
vt 0.581442 0.000000
vt 0.375000 0.250000
vt 0.581442 0.250000
vt 0.603221 0.242219
vt 0.619164 0.220962
vt 0.625000 0.191923
vt 0.625000 0.058077
vt 0.619164 0.029038
vt 0.603221 0.007781
vt 0.619164 0.220962
vt 0.603221 0.242219
vt 0.377447 0.003262
vt 0.581120 0.003262
vt 0.601955 0.010706
vt 0.616971 0.030727
vt 0.622553 0.058506
vt 0.622553 0.191494
vt 0.616971 0.219273
vt 0.601955 0.239294
vt 0.581120 0.246738
vt 0.377447 0.246738
vt 0.581442 0.250000
vt 0.375000 0.250000
vt 0.625000 0.058077
vt 0.625000 0.191923
vt 0.603221 0.007781
vt 0.619164 0.029038
vt 0.000000 0.000000
vt 0.000000 0.000000
vt 0.000000 0.000000
vt 0.000000 0.000000
vt 0.000000 0.000000
vt 0.000000 0.000000
vt 0.000000 0.000000
vt 0.000000 0.000000
vt 0.000000 0.000000
vt 0.000000 0.000000
vt 0.375000 0.000000
vt 0.625000 0.000000
vt 0.625000 0.250000
vt 0.375000 0.250000
vt 0.375000 0.250000
vt 0.625000 0.250000
vt 0.625000 0.500000
vt 0.375000 0.500000
vt 0.541667 0.500000
vt 0.625000 0.500000
vt 0.625000 0.750000
vt 0.541667 0.750000
vt 0.541667 0.750000
vt 0.625000 0.750000
vt 0.625000 1.000000
vt 0.541667 1.000000
vt 0.291667 0.500000
vt 0.375000 0.500000
vt 0.375000 0.750000
vt 0.291667 0.750000
vt 0.791667 0.500000
vt 0.875000 0.500000
vt 0.875000 0.750000
vt 0.791667 0.750000
vt 0.625000 0.500000
vt 0.708333 0.500000
vt 0.708333 0.750000
vt 0.625000 0.750000
vt 0.763889 0.500000
vt 0.763889 0.750000
vt 0.125000 0.500000
vt 0.208333 0.500000
vt 0.208333 0.750000
vt 0.125000 0.750000
vt 0.263889 0.500000
vt 0.263889 0.750000
vt 0.375000 0.750000
vt 0.458333 0.750000
vt 0.458333 1.000000
vt 0.375000 1.000000
vt 0.513889 0.750000
vt 0.513889 1.000000
vt 0.375000 0.500000
vt 0.458333 0.500000
vt 0.458333 0.750000
vt 0.375000 0.750000
vt 0.513889 0.500000
vt 0.513889 0.750000
vt 0.486111 0.500000
vt 0.486111 0.750000
vt 0.486111 0.750000
vt 0.486111 1.000000
vt 0.236111 0.500000
vt 0.236111 0.750000
vt 0.736111 0.500000
vt 0.736111 0.750000
vt 1.000000 0.500000
vt 1.000000 1.000000
vt 0.833333 1.000000
vt 0.833333 0.500000
vt 0.666667 1.000000
vt 0.666667 0.500000
vt 0.500000 1.000000
vt 0.500000 0.500000
vt 0.333333 1.000000
vt 0.333333 0.500000
vt 0.457846 0.370000
vt 0.250000 0.490000
vt 0.042154 0.370000
vt 0.042154 0.130000
vt 0.250000 0.010000
vt 0.457846 0.130000
vt 0.166667 1.000000
vt 0.166667 0.500000
vt -0.000000 1.000000
vt -0.000000 0.500000
vt 0.750000 0.490000
vt 0.957846 0.370000
vt 0.957846 0.130000
vt 0.750000 0.010000
vt 0.542154 0.130000
vt 0.542154 0.370000
vn 0.5000 0.0000 -0.8660
vn 1.0000 0.0000 0.0000
vn 0.5000 0.0000 0.8660
vn -0.5000 0.0000 0.8660
vn 0.0000 1.0000 0.0000
vn -1.0000 0.0000 0.0000
vn -0.5000 0.0000 -0.8660
vn 0.0000 -1.0000 0.0000
vn 0.0000 0.0000 -1.0000
vn 0.0000 0.7071 0.7071
vn 0.0000 0.0000 1.0000
vn 0.0000 0.2588 0.9659
vn 0.0000 0.7071 -0.7071
vn 0.0000 0.9659 0.2588
vn 0.0000 0.2588 -0.9659
vn 0.0000 0.9659 -0.2588
vn 0.7071 -0.7071 0.0000
vn 0.7071 0.6830 0.1830
vn 0.7071 0.5000 0.5000
vn 0.7071 0.1830 0.6830
vn 0.7071 0.6830 -0.1830
vn 0.7071 0.5000 -0.5000
vn 0.7071 0.1830 -0.6830
vn 0.7071 0.0000 -0.7071
vn 0.7071 0.7071 0.0000
vn 0.7071 0.0000 0.7071
vn 0.7156 0.6985 0.0000
vn -0.0861 -0.9963 0.0000
vn 0.7157 -0.6985 0.0000
vn -0.0861 0.9963 0.0000
g FridgeDoor_Cylinder.001_None
s off
f 1/1/1 2/2/1 4/3/1 3/4/1
f 3/4/2 4/3/2 6/5/2 5/6/2
f 5/6/3 6/5/3 8/7/3 7/8/3
f 7/8/4 8/7/4 10/9/4 9/10/4
f 4/11/5 2/12/5 12/13/5 10/14/5 8/15/5 6/16/5
f 9/10/6 10/9/6 12/17/6 11/18/6
f 11/18/7 12/17/7 2/19/7 1/20/7
f 1/21/8 3/22/8 5/23/8 7/24/8 9/25/8 11/26/8
f 24/27/9 14/28/9 22/29/9 27/30/9
f 14/28/6 13/31/6 18/32/6 17/33/6 15/34/6 16/35/6 19/36/6 20/37/6 21/38/6 22/29/6
f 40/39/10 15/34/10 17/33/10 42/40/10
f 23/41/2 28/42/2 32/43/2 34/44/2 29/45/2 36/46/2 39/47/2 41/48/2 37/49/2 26/50/2
f 38/51/11 18/32/11 13/31/11 25/52/11
f 30/53/5 19/36/5 16/35/5 35/54/5
f 42/40/12 17/33/12 18/32/12 38/51/12
f 31/55/13 21/38/13 20/37/13 33/56/13
f 35/54/14 16/35/14 15/34/14 40/39/14
f 27/30/15 22/29/15 21/38/15 31/55/15
f 33/56/16 20/37/16 19/36/16 30/53/16
f 22/57/2 13/58/2 14/59/2
f 22/57/2 18/60/2 13/58/2
f 18/60/2 22/57/2 19/61/2
f 18/60/2 15/62/2 17/63/2
f 22/57/2 20/64/2 19/61/2
f 21/65/2 20/64/2 22/57/2
f 19/61/2 16/66/2 18/60/2
f 16/66/2 15/62/2 18/60/2
f 26/50/17 25/52/17 24/27/17 23/41/17
f 40/39/18 39/47/18 36/46/18 35/54/18
f 42/40/19 41/48/19 39/47/19 40/39/19
f 38/51/20 37/49/20 41/48/20 42/40/20
f 30/53/21 29/45/21 34/44/21 33/56/21
f 33/56/22 34/44/22 32/43/22 31/55/22
f 31/55/23 32/43/23 28/42/23 27/30/23
f 27/30/24 28/42/24 23/41/24 24/27/24
f 29/45/25 30/53/25 35/54/25 36/46/25
f 37/49/26 38/51/26 25/52/26 26/50/26
f 25/52/8 13/31/8 14/28/8 24/27/8
f 43/67/5 47/68/5 49/69/5 45/70/5
f 48/71/8 44/72/8 46/73/8 50/74/8
f 51/75/11 45/76/11 49/77/11 58/78/11
f 53/79/27 43/80/27 45/81/27 51/82/27
f 55/83/9 47/84/9 43/85/9 53/86/9
f 58/87/6 49/88/6 47/89/6 55/90/6
f 50/91/6 57/92/6 56/93/6 48/94/6
f 66/95/28 58/87/28 55/90/28 63/96/28
f 48/97/9 56/98/9 54/99/9 44/100/9
f 63/101/9 55/83/9 53/86/9 61/102/9
f 44/103/29 54/104/29 52/105/29 46/106/29
f 61/107/2 53/79/2 51/82/2 59/108/2
f 46/109/11 52/110/11 57/111/11 50/112/11
f 59/113/11 51/75/11 58/78/11 66/114/11
f 52/110/11 60/115/11 65/116/11 57/111/11
f 60/115/11 59/113/11 66/114/11 65/116/11
f 54/104/2 62/117/2 60/118/2 52/105/2
f 62/117/2 61/107/2 59/108/2 60/118/2
f 56/98/9 64/119/9 62/120/9 54/99/9
f 64/119/9 63/101/9 61/102/9 62/120/9
f 57/92/30 65/121/30 64/122/30 56/93/30
f 65/121/6 66/95/6 63/96/6 64/122/6
f 67/123/1 68/124/1 70/125/1 69/126/1
f 69/126/2 70/125/2 72/127/2 71/128/2
f 71/128/3 72/127/3 74/129/3 73/130/3
f 73/130/4 74/129/4 76/131/4 75/132/4
f 70/133/5 68/134/5 78/135/5 76/136/5 74/137/5 72/138/5
f 75/132/6 76/131/6 78/139/6 77/140/6
f 77/140/7 78/139/7 68/141/7 67/142/7
f 67/143/8 69/144/8 71/145/8 73/146/8 75/147/8 77/148/8
