# Blender v2.81 (sub 16) OBJ File: 'LudumDare_47.blend'
# www.blender.org
o Cube.005_Cube.009
v -1.851078 0.925370 1.961748
v -1.851078 1.004045 1.961748
v -1.851078 0.925370 -0.941930
v -1.851078 1.004045 -0.941930
v -0.040350 0.925370 1.961748
v -0.040350 1.004045 1.961748
v -0.040350 0.925370 -0.941930
v -0.040350 1.004045 -0.941930
v -2.000000 0.000000 2.000000
v -2.000000 0.000000 -1.000000
v -0.000000 0.129059 1.870941
v -0.000000 0.129059 -0.870941
v -2.000000 3.303077 2.000000
v -2.000000 4.000000 1.303077
v -2.000000 3.651538 1.906630
v -2.000000 3.906630 1.651538
v -2.000000 4.000000 -0.303077
v -2.000000 3.303077 -1.000000
v -2.000000 3.906630 -0.651538
v -2.000000 3.651538 -0.906630
v -0.000000 3.870941 1.286086
v -0.000000 3.286086 1.870941
v -0.000000 3.790918 1.584733
v -0.000000 3.584732 1.790919
v -0.000000 3.286086 -0.870941
v -0.000000 3.870941 -0.286086
v -0.000000 3.584732 -0.790919
v -0.000000 3.790918 -0.584733
v -0.000000 0.000000 2.000000
v -0.000000 0.000000 -1.000000
v -0.000000 4.000000 -0.303077
v -0.000000 3.906630 -0.651538
v -0.000000 3.651538 -0.906630
v -0.000000 3.303077 -1.000000
v -0.000000 3.906630 1.651538
v -0.000000 4.000000 1.303077
v -0.000000 3.651538 1.906630
v -0.000000 3.303077 2.000000
v -1.768958 0.129059 1.870941
v -1.768958 0.129059 -0.870941
v -1.768958 3.870941 -0.286086
v -1.768958 3.790918 -0.584733
v -1.768958 3.584732 -0.790919
v -1.768958 3.286086 -0.870941
v -1.768958 3.790918 1.584733
v -1.768958 3.870941 1.286086
v -1.768958 3.584732 1.790919
v -1.768958 3.286086 1.870941
v -1.851078 2.254577 1.961748
v -1.851078 2.333251 1.961748
v -1.851078 2.254577 -0.941930
v -1.851078 2.333251 -0.941930
v -0.040350 2.254577 1.961748
v -0.040350 2.333251 1.961748
v -0.040350 2.254577 -0.941930
v -0.040350 2.333251 -0.941930
vt 0.375000 0.000000
vt 0.625000 0.000000
vt 0.625000 0.250000
vt 0.375000 0.250000
vt 0.625000 0.500000
vt 0.375000 0.500000
vt 0.625000 0.750000
vt 0.375000 0.750000
vt 0.625000 1.000000
vt 0.375000 1.000000
vt 0.125000 0.500000
vt 0.125000 0.750000
vt 0.875000 0.500000
vt 0.875000 0.750000
vt 0.625000 0.558077
vt 0.875000 0.558077
vt 0.875000 0.691923
vt 0.625000 0.691923
vt 0.383066 0.510755
vt 0.580380 0.510755
vt 0.580380 0.510755
vt 0.383066 0.510755
vt 0.375000 0.000000
vt 0.581442 0.000000
vt 0.603221 0.007781
vt 0.619164 0.029038
vt 0.625000 0.058077
vt 0.625000 0.191923
vt 0.619164 0.220962
vt 0.603221 0.242219
vt 0.581442 0.250000
vt 0.375000 0.250000
vt 0.125000 0.500000
vt 0.375000 0.500000
vt 0.375000 0.750000
vt 0.125000 0.750000
vt 0.581442 0.500000
vt 0.625000 0.529038
vt 0.875000 0.529038
vt 0.625000 0.500000
vt 0.875000 0.500000
vt 0.603221 0.250000
vt 0.603221 0.500000
vt 0.875000 0.720962
vt 0.625000 0.720962
vt 0.875000 0.750000
vt 0.625000 0.750000
vt 0.603221 0.750000
vt 0.603221 1.000000
vt 0.581442 1.000000
vt 0.581442 0.750000
vt 0.375000 1.000000
vt 0.383066 0.739245
vt 0.616934 0.559493
vt 0.611932 0.534606
vt 0.619164 0.529038
vt 0.599046 0.517423
vt 0.603221 0.507781
vt 0.611932 0.715394
vt 0.616934 0.690507
vt 0.619164 0.720962
vt 0.599046 0.732577
vt 0.603221 0.742219
vt 0.580380 0.739245
vt 0.599046 0.517423
vt 0.611932 0.534606
vt 0.616934 0.559493
vt 0.616934 0.690507
vt 0.611932 0.715394
vt 0.599046 0.732577
vt 0.580380 0.739245
vt 0.383066 0.739245
vt 0.375000 0.000000
vt 0.625000 0.000000
vt 0.625000 0.250000
vt 0.375000 0.250000
vt 0.625000 0.500000
vt 0.375000 0.500000
vt 0.625000 0.750000
vt 0.375000 0.750000
vt 0.625000 1.000000
vt 0.375000 1.000000
vt 0.125000 0.500000
vt 0.125000 0.750000
vt 0.875000 0.500000
vt 0.875000 0.750000
vn -1.0000 0.0000 0.0000
vn 0.0000 0.0000 -1.0000
vn 1.0000 0.0000 0.0000
vn 0.0000 0.0000 1.0000
vn 0.0000 -1.0000 0.0000
vn 0.0000 1.0000 0.0000
vn 0.0000 0.9659 -0.2588
vn 0.0000 0.7071 -0.7071
vn 0.0000 0.2588 -0.9659
vn 0.0000 0.9659 0.2588
vn 0.0000 0.7071 0.7071
vn 0.0000 0.2588 0.9659
vn 0.0000 -0.2588 -0.9659
vn 0.0000 -0.2588 0.9659
vn 0.0000 -0.9659 -0.2588
vn 0.0000 -0.9659 0.2588
vn 0.0000 -0.7071 -0.7071
vn 0.0000 -0.7071 0.7071
g Cube.005_Cube.009_None
s off
f 1/1/1 2/2/1 4/3/1 3/4/1
f 3/4/2 4/3/2 8/5/2 7/6/2
f 7/6/3 8/5/3 6/7/3 5/8/3
f 5/8/4 6/7/4 2/9/4 1/10/4
f 3/11/5 7/6/5 5/8/5 1/12/5
f 8/5/6 4/13/6 2/14/6 6/7/6
f 31/15/6 17/16/6 14/17/6 36/18/6
f 12/19/4 25/20/4 44/21/4 40/22/4
f 9/23/1 13/24/1 15/25/1 16/26/1 14/27/1 17/28/1 19/29/1 20/30/1 18/31/1 10/32/1
f 10/33/5 30/34/5 29/35/5 9/36/5
f 10/32/2 18/31/2 34/37/2 30/34/2
f 17/16/7 31/15/7 32/38/7 19/39/7
f 19/39/8 32/38/8 33/40/8 20/41/8
f 20/42/9 33/43/9 34/37/9 18/31/9
f 36/18/10 14/17/10 16/44/10 35/45/10
f 35/45/11 16/44/11 15/46/11 37/47/11
f 37/48/12 15/49/12 13/50/12 38/51/12
f 29/35/4 38/51/4 13/50/4 9/52/4
f 12/19/3 11/53/3 29/35/3 30/34/3
f 26/54/3 28/55/3 32/56/3 31/15/3
f 28/55/3 27/57/3 33/58/3 32/56/3
f 27/57/3 25/20/3 34/37/3 33/58/3
f 23/59/3 21/60/3 36/18/3 35/61/3
f 24/62/3 23/59/3 35/61/3 37/63/3
f 22/64/3 24/62/3 37/63/3 38/51/3
f 11/53/3 22/64/3 38/51/3 29/35/3
f 21/60/3 26/54/3 31/15/3 36/18/3
f 25/20/3 12/19/3 30/34/3 34/37/3
f 40/22/3 44/21/3 43/65/3 42/66/3 41/67/3 46/68/3 45/69/3 47/70/3 48/71/3 39/72/3
f 24/62/13 22/64/13 48/71/13 47/70/13
f 25/20/14 27/57/14 43/65/14 44/21/14
f 11/53/6 12/19/6 40/22/6 39/72/6
f 22/64/2 11/53/2 39/72/2 48/71/2
f 21/60/15 23/59/15 45/69/15 46/68/15
f 28/55/16 26/54/16 41/67/16 42/66/16
f 26/54/5 21/60/5 46/68/5 41/67/5
f 23/59/17 24/62/17 47/70/17 45/69/17
f 27/57/18 28/55/18 42/66/18 43/65/18
f 49/73/1 50/74/1 52/75/1 51/76/1
f 51/76/2 52/75/2 56/77/2 55/78/2
f 55/78/3 56/77/3 54/79/3 53/80/3
f 53/80/4 54/79/4 50/81/4 49/82/4
f 51/83/5 55/78/5 53/80/5 49/84/5
f 56/77/6 52/85/6 50/86/6 54/79/6
