# Blender v2.81 (sub 16) OBJ File: 'LudumDare_47.blend'
# www.blender.org
mtllib PipesCorner.mtl
o PipeCurve_Cylinder.013
v 0.000000 0.000000 -0.500000
v 0.000000 1.000000 -0.500000
v 0.180621 0.000000 -0.466236
v 0.180621 1.000000 -0.466236
v 0.336848 0.000000 -0.369504
v 0.336848 1.000000 -0.369504
v 0.447582 0.000000 -0.222869
v 0.447582 1.000000 -0.222869
v 0.497867 0.000000 -0.046134
v 0.497867 1.000000 -0.046134
v 0.480913 0.000000 0.136831
v 0.480913 1.000000 0.136831
v 0.399009 0.000000 0.301317
v 0.399009 1.000000 0.301317
v 0.263216 0.000000 0.425109
v 0.263216 1.000000 0.425109
v 0.091875 0.000000 0.491487
v 0.091875 1.000000 0.491487
v -0.091875 0.000000 0.491487
v -0.091875 1.000000 0.491487
v -0.263216 0.000000 0.425109
v -0.263216 1.000000 0.425109
v -0.399009 0.000000 0.301317
v -0.399009 1.000000 0.301317
v -0.480913 0.000000 0.136831
v -0.480913 1.000000 0.136831
v -0.497867 0.000000 -0.046134
v -0.497867 1.000000 -0.046134
v -0.447582 0.000000 -0.222869
v -0.447582 1.000000 -0.222869
v -0.336848 0.000000 -0.369505
v -0.336848 1.000000 -0.369505
v -0.180620 0.000000 -0.466236
v -0.180620 1.000000 -0.466236
v 0.000000 1.088166 -0.488271
v 0.180621 1.094029 -0.455020
v 0.336848 1.110827 -0.359758
v 0.447582 1.136290 -0.215351
v 0.497867 1.166979 -0.041301
v 0.480913 1.198751 0.138885
v 0.399009 1.227314 0.300872
v 0.263216 1.248810 0.422783
v 0.091875 1.260336 0.488152
v -0.091875 1.260336 0.488152
v -0.263216 1.248810 0.422783
v -0.399009 1.227314 0.300872
v -0.480913 1.198751 0.138885
v -0.497867 1.166979 -0.041301
v -0.447582 1.136290 -0.215351
v -0.336848 1.110827 -0.359758
v -0.180620 1.094029 -0.455020
v 0.000000 1.177030 -0.492031
v 0.180621 1.188578 -0.460303
v 0.336848 1.221662 -0.369405
v 0.447582 1.271814 -0.231613
v 0.497867 1.332261 -0.065536
v 0.480913 1.394839 0.106395
v 0.399009 1.451097 0.260961
v 0.263216 1.493436 0.377287
v 0.091875 1.516138 0.439662
v -0.091875 1.516138 0.439662
v -0.263216 1.493436 0.377287
v -0.399009 1.451097 0.260961
v -0.480913 1.394839 0.106395
v -0.497867 1.332261 -0.065536
v -0.447582 1.271814 -0.231613
v -0.336848 1.221662 -0.369405
v -0.180620 1.188578 -0.460303
v 0.000000 1.263891 -0.511164
v 0.180621 1.280773 -0.481923
v 0.336848 1.329138 -0.398151
v 0.447582 1.402456 -0.271161
v 0.497867 1.490824 -0.118104
v 0.480913 1.582306 0.040348
v 0.399009 1.664549 0.182797
v 0.263216 1.726445 0.290004
v 0.091875 1.759634 0.347489
v -0.091875 1.759634 0.347489
v -0.263216 1.726445 0.290004
v -0.399009 1.664549 0.182797
v -0.480913 1.582306 0.040348
v -0.497867 1.490824 -0.118105
v -0.447582 1.402456 -0.271162
v -0.336848 1.329138 -0.398151
v -0.180620 1.280772 -0.481923
v 0.000000 1.346109 -0.545089
v 0.180621 1.367812 -0.519225
v 0.336848 1.429990 -0.445124
v 0.447582 1.524245 -0.332795
v 0.497867 1.637849 -0.197408
v 0.480913 1.755457 -0.057248
v 0.399009 1.861186 0.068755
v 0.263216 1.940758 0.163585
v 0.091875 1.983424 0.214433
v -0.091875 1.983424 0.214433
v -0.263216 1.940758 0.163585
v -0.399009 1.861186 0.068755
v -0.480913 1.755457 -0.057248
v -0.497867 1.637848 -0.197408
v -0.447582 1.524245 -0.332795
v -0.336848 1.429990 -0.445124
v -0.180620 1.367812 -0.519225
v 0.000000 1.421188 -0.592777
v 0.180621 1.447052 -0.571074
v 0.336848 1.521153 -0.508896
v 0.447582 1.633482 -0.414641
v 0.497867 1.768869 -0.301038
v 0.480913 1.909029 -0.183430
v 0.399009 2.035033 -0.077700
v 0.263216 2.129862 0.001871
v 0.091875 2.180710 0.044538
v -0.091875 2.180710 0.044538
v -0.263216 2.129862 0.001871
v -0.399009 2.035033 -0.077700
v -0.480913 1.909029 -0.183430
v -0.497867 1.768869 -0.301038
v -0.447582 1.633482 -0.414641
v -0.336848 1.521153 -0.508896
v -0.180620 1.447052 -0.571074
v 0.000000 1.486845 -0.652777
v 0.180621 1.516085 -0.635895
v 0.336848 1.599857 -0.587529
v 0.447582 1.726847 -0.514212
v 0.497867 1.879904 -0.425844
v 0.480913 2.038357 -0.334361
v 0.399009 2.180806 -0.252119
v 0.263216 2.288012 -0.190223
v 0.091875 2.345497 -0.157034
v -0.091875 2.345497 -0.157034
v -0.263216 2.288012 -0.190223
v -0.399009 2.180806 -0.252119
v -0.480913 2.038357 -0.334361
v -0.497867 1.879904 -0.425844
v -0.447582 1.726847 -0.514212
v -0.336848 1.599857 -0.587529
v -0.180620 1.516085 -0.635895
v 0.000000 1.541085 -0.723267
v 0.180621 1.572813 -0.711719
v 0.336848 1.663711 -0.678635
v 0.447582 1.801503 -0.628483
v 0.497867 1.967580 -0.568036
v 0.480913 2.139511 -0.505458
v 0.399009 2.294078 -0.449201
v 0.263216 2.410403 -0.406861
v 0.091875 2.472778 -0.384159
v -0.091875 2.472778 -0.384159
v -0.263216 2.410403 -0.406861
v -0.399009 2.294078 -0.449201
v -0.480913 2.139511 -0.505458
v -0.497867 1.967579 -0.568036
v -0.447582 1.801503 -0.628483
v -0.336848 1.663711 -0.678635
v -0.180620 1.572813 -0.711719
v 0.000000 1.582261 -0.802105
v 0.180621 1.615512 -0.796242
v 0.336848 1.710774 -0.779444
v 0.447582 1.855182 -0.753981
v 0.497867 2.029232 -0.723292
v 0.480913 2.209418 -0.691520
v 0.399009 2.371405 -0.662958
v 0.263216 2.493315 -0.641461
v 0.091875 2.558685 -0.629935
v -0.091875 2.558685 -0.629935
v -0.263216 2.493315 -0.641461
v -0.399009 2.371405 -0.662958
v -0.480913 2.209418 -0.691520
v -0.497867 2.029232 -0.723292
v -0.447582 1.855182 -0.753981
v -0.336848 1.710774 -0.779444
v -0.180620 1.615512 -0.796242
v 0.000000 1.609122 -0.886895
v 0.180621 1.642886 -0.886895
v 0.336848 1.739617 -0.886895
v 0.447582 1.886253 -0.886895
v 0.497867 2.062988 -0.886895
v 0.480913 2.245953 -0.886895
v 0.399009 2.410439 -0.886895
v 0.263216 2.534230 -0.886895
v 0.091875 2.600608 -0.886895
v -0.091875 2.600608 -0.886895
v -0.263216 2.534230 -0.886895
v -0.399009 2.410439 -0.886895
v -0.480913 2.245953 -0.886895
v -0.497867 2.062987 -0.886895
v -0.447582 1.886252 -0.886895
v -0.336848 1.739617 -0.886895
v -0.180620 1.642886 -0.886895
vt 1.000000 0.500000
vt 1.000000 1.000000
vt 0.941176 1.000000
vt 0.941176 0.500000
vt 0.882353 1.000000
vt 0.882353 0.500000
vt 0.823529 1.000000
vt 0.823529 0.500000
vt 0.764706 1.000000
vt 0.764706 0.500000
vt 0.705882 1.000000
vt 0.705882 0.500000
vt 0.647059 1.000000
vt 0.647059 0.500000
vt 0.588235 1.000000
vt 0.588235 0.500000
vt 0.529412 1.000000
vt 0.529412 0.500000
vt 0.470588 1.000000
vt 0.470588 0.500000
vt 0.411765 1.000000
vt 0.411765 0.500000
vt 0.352941 1.000000
vt 0.352941 0.500000
vt 0.294118 1.000000
vt 0.294118 0.500000
vt 0.235294 1.000000
vt 0.235294 0.500000
vt 0.176471 1.000000
vt 0.176471 0.500000
vt 0.117647 1.000000
vt 0.117647 0.500000
vt 0.705882 1.000000
vt 0.647059 1.000000
vt 0.058824 1.000000
vt 0.058824 0.500000
vt 0.000000 1.000000
vt 0.000000 0.500000
vt 0.750000 0.490000
vt 0.836698 0.473793
vt 0.911687 0.427362
vt 0.964839 0.356977
vt 0.988976 0.272144
vt 0.980838 0.184321
vt 0.941524 0.105368
vt 0.876344 0.045948
vt 0.794100 0.014086
vt 0.705900 0.014086
vt 0.623656 0.045948
vt 0.558476 0.105368
vt 0.519162 0.184321
vt 0.511024 0.272144
vt 0.535161 0.356977
vt 0.588313 0.427362
vt 0.663302 0.473793
vt 0.764706 1.000000
vt 0.823529 1.000000
vt 0.823529 1.000000
vt 0.764706 1.000000
vt 0.411765 1.000000
vt 0.352941 1.000000
vt 0.117647 1.000000
vt 0.058824 1.000000
vt 0.529412 1.000000
vt 0.470588 1.000000
vt 0.235294 1.000000
vt 0.176471 1.000000
vt 0.941176 1.000000
vt 0.882353 1.000000
vt 0.588235 1.000000
vt 0.294118 1.000000
vt 0.000000 1.000000
vt 1.000000 1.000000
vt 0.588235 1.000000
vt 0.647059 1.000000
vt 0.647059 1.000000
vt 0.588235 1.000000
vt 0.352941 1.000000
vt 0.294118 1.000000
vt 0.705882 1.000000
vt 0.235294 1.000000
vt 0.176471 1.000000
vt 0.117647 1.000000
vt 0.529412 1.000000
vt 1.000000 1.000000
vt 0.941176 1.000000
vt 0.058824 1.000000
vt 0.470588 1.000000
vt 0.882353 1.000000
vt 0.000000 1.000000
vt 0.411765 1.000000
vt 0.411765 1.000000
vt 0.470588 1.000000
vt 0.470588 1.000000
vt 0.411765 1.000000
vt 0.176471 1.000000
vt 0.117647 1.000000
vt 0.529412 1.000000
vt 1.000000 1.000000
vt 0.941176 1.000000
vt 0.058824 1.000000
vt 0.882353 1.000000
vt 0.000000 1.000000
vt 0.823529 1.000000
vt 0.352941 1.000000
vt 0.764706 1.000000
vt 0.294118 1.000000
vt 0.705882 1.000000
vt 0.235294 1.000000
vt 0.235294 1.000000
vt 0.294118 1.000000
vt 0.294118 1.000000
vt 0.235294 1.000000
vt 0.882353 1.000000
vt 0.823529 1.000000
vt 0.352941 1.000000
vt 0.764706 1.000000
vt 0.705882 1.000000
vt 0.647059 1.000000
vt 0.176471 1.000000
vt 0.588235 1.000000
vt 0.117647 1.000000
vt 0.529412 1.000000
vt 1.000000 1.000000
vt 0.941176 1.000000
vt 0.058824 1.000000
vt 0.000000 1.000000
vt 0.058824 1.000000
vt 0.117647 1.000000
vt 0.117647 1.000000
vt 0.058824 1.000000
vt 0.705882 1.000000
vt 0.647059 1.000000
vt 0.176471 1.000000
vt 0.588235 1.000000
vt 0.529412 1.000000
vt 1.000000 1.000000
vt 0.941176 1.000000
vt 0.470588 1.000000
vt 0.882353 1.000000
vt 0.000000 1.000000
vt 0.411765 1.000000
vt 0.823529 1.000000
vt 0.352941 1.000000
vt 0.764706 1.000000
vt 0.294118 1.000000
vt 0.352941 1.000000
vt 0.352941 1.000000
vt 0.294118 1.000000
vt 0.529412 1.000000
vt 0.470588 1.000000
vt 0.941176 1.000000
vt 0.882353 1.000000
vt 0.000000 1.000000
vt 0.411765 1.000000
vt 0.823529 1.000000
vt 0.764706 1.000000
vt 0.705882 1.000000
vt 0.235294 1.000000
vt 0.647059 1.000000
vt 0.176471 1.000000
vt 0.588235 1.000000
vt 1.000000 1.000000
vt 0.117647 1.000000
vt 0.176471 1.000000
vt 0.176471 1.000000
vt 0.117647 1.000000
vt 0.764706 1.000000
vt 0.705882 1.000000
vt 0.235294 1.000000
vt 0.647059 1.000000
vt 0.588235 1.000000
vt 0.529412 1.000000
vt 1.000000 1.000000
vt 0.941176 1.000000
vt 0.058824 1.000000
vt 0.470588 1.000000
vt 0.882353 1.000000
vt 0.000000 1.000000
vt 0.411765 1.000000
vt 0.823529 1.000000
vt 0.823529 1.000000
vt 0.882353 1.000000
vt 0.882353 1.000000
vt 0.823529 1.000000
vt 0.588235 1.000000
vt 0.529412 1.000000
vt 1.000000 1.000000
vt 0.941176 1.000000
vt 0.058824 1.000000
vt 0.470588 1.000000
vt 0.000000 1.000000
vt 0.411765 1.000000
vt 0.352941 1.000000
vt 0.764706 1.000000
vt 0.294118 1.000000
vt 0.705882 1.000000
vt 0.235294 1.000000
vt 0.647059 1.000000
vt 0.336698 0.473793
vt 0.250000 0.490000
vt 0.163302 0.473793
vt 0.088313 0.427362
vt 0.035161 0.356977
vt 0.011024 0.272144
vt 0.019162 0.184321
vt 0.058476 0.105368
vt 0.123656 0.045948
vt 0.205900 0.014086
vt 0.294100 0.014086
vt 0.376344 0.045948
vt 0.441524 0.105368
vt 0.480838 0.184321
vt 0.488976 0.272144
vt 0.464839 0.356977
vt 0.411687 0.427362
vt 0.411765 1.000000
vt 0.352941 1.000000
vt 0.764706 1.000000
vt 0.294118 1.000000
vt 0.705882 1.000000
vt 0.235294 1.000000
vt 0.647059 1.000000
vt 0.176471 1.000000
vt 0.588235 1.000000
vt 0.117647 1.000000
vt 0.529412 1.000000
vt 1.000000 1.000000
vt 0.941176 1.000000
vt 0.058824 1.000000
vt 0.470588 1.000000
vt 0.000000 1.000000
vn 0.1837 0.0000 -0.9830
vn 0.5264 0.0000 -0.8502
vn 0.7980 0.0000 -0.6026
vn 0.9618 0.0000 -0.2737
vn 0.9957 0.0000 0.0923
vn 0.8952 0.0000 0.4457
vn 0.6737 0.0000 0.7390
vn 0.3612 0.0000 0.9325
vn 0.0000 0.0000 1.0000
vn -0.3612 0.0000 0.9325
vn -0.6737 0.0000 0.7390
vn -0.8952 0.0000 0.4457
vn -0.9957 0.0000 0.0923
vn -0.9618 0.0000 -0.2737
vn -0.7980 0.0000 -0.6026
vn 0.8937 -0.0017 0.4486
vn -0.5264 0.0000 -0.8502
vn -0.1837 0.0000 -0.9830
vn 0.0000 -1.0000 0.0000
vn 0.9610 -0.0369 -0.2742
vn -0.6711 0.0043 0.7414
vn -0.5181 0.0871 -0.8509
vn 0.9610 0.0113 -0.2765
vn 0.0000 0.0128 0.9999
vn -0.9610 0.0113 -0.2765
vn 0.5181 0.0871 -0.8509
vn 0.6711 0.0043 0.7414
vn -0.8937 -0.0017 0.4486
vn -0.1791 0.1229 -0.9761
vn 0.9957 -0.0018 0.0931
vn -0.3591 0.0104 0.9332
vn -0.7933 0.0424 -0.6074
vn 0.7933 0.0424 -0.6074
vn 0.3591 0.0104 0.9332
vn 0.1791 0.1229 -0.9761
vn -0.9957 -0.0018 0.0931
vn 0.6711 0.2576 0.6952
vn -0.8937 0.0762 0.4421
vn 0.9957 0.0144 0.0920
vn -0.9957 0.0144 0.0920
vn 0.8937 0.0762 0.4421
vn -0.9610 -0.0369 -0.2742
vn 0.6711 0.1330 0.7294
vn -0.7933 -0.0637 -0.6055
vn 0.3591 0.1723 0.9172
vn 0.1791 -0.0484 -0.9826
vn -0.5181 -0.0620 -0.8530
vn 0.0000 0.1862 0.9825
vn 0.5181 -0.0620 -0.8530
vn -0.1791 -0.0484 -0.9826
vn -0.3591 0.1723 0.9172
vn 0.7933 -0.0637 -0.6055
vn -0.6711 0.1330 0.7294
vn -0.3591 0.4756 0.8030
vn -0.7933 -0.1679 -0.5852
vn 0.3591 0.3289 0.8734
vn 0.1791 -0.2183 -0.9593
vn -0.5181 -0.2092 -0.8293
vn 0.0000 0.3540 0.9352
vn 0.5181 -0.2092 -0.8293
vn -0.1791 -0.2183 -0.9593
vn -0.3591 0.3289 0.8734
vn 0.7933 -0.1679 -0.5852
vn -0.6711 0.2576 0.6952
vn 0.9610 -0.0840 -0.2637
vn -0.8937 0.1518 0.4221
vn 0.9957 0.0302 0.0881
vn -0.9957 0.0302 0.0881
vn 0.8937 0.1518 0.4221
vn -0.9610 -0.0840 -0.2637
vn -0.9957 0.0585 0.0725
vn 0.7933 -0.2669 -0.5472
vn -0.6711 0.3744 0.6399
vn 0.9610 -0.1285 -0.2451
vn -0.8937 0.2228 0.3893
vn 0.9957 0.0450 0.0815
vn -0.9957 0.0450 0.0815
vn 0.8937 0.2228 0.3893
vn -0.9610 -0.1285 -0.2451
vn 0.6711 0.3744 0.6399
vn -0.7933 -0.2669 -0.5472
vn 0.3591 0.4756 0.8030
vn 0.1791 -0.3816 -0.9068
vn -0.5181 -0.3500 -0.7804
vn 0.0000 0.5110 0.8596
vn 0.5181 -0.3500 -0.7804
vn -0.1791 -0.3816 -0.9068
vn -0.5181 -0.5958 -0.6136
vn 0.8937 0.2870 0.3447
vn -0.9610 -0.1691 -0.2190
vn 0.6711 0.4799 0.5652
vn -0.7933 -0.3579 -0.4925
vn 0.3591 0.6078 0.7082
vn 0.1791 -0.5333 -0.8268
vn -0.5181 -0.4802 -0.7078
vn 0.0000 0.6525 0.7578
vn 0.5181 -0.4802 -0.7078
vn -0.1791 -0.5333 -0.8268
vn -0.3591 0.6078 0.7082
vn 0.7933 -0.3579 -0.4925
vn -0.6711 0.4799 0.5652
vn 0.9610 -0.1691 -0.2190
vn -0.8937 0.2870 0.3447
vn 0.9957 0.0585 0.0725
vn -0.8937 0.3876 0.2258
vn 0.0000 0.7742 0.6329
vn 0.5181 -0.5958 -0.6136
vn -0.1791 -0.6687 -0.7216
vn -0.3591 0.7216 0.5919
vn 0.7933 -0.4380 -0.4229
vn -0.6711 0.5707 0.4732
vn 0.9610 -0.2046 -0.1864
vn -0.8937 0.3425 0.2896
vn 0.9957 0.0702 0.0612
vn -0.9957 0.0702 0.0612
vn 0.8937 0.3425 0.2896
vn -0.9610 -0.2046 -0.1864
vn 0.6711 0.5707 0.4732
vn -0.7933 -0.4380 -0.4229
vn 0.3591 0.7216 0.5919
vn 0.1791 -0.6687 -0.7216
vn -0.7933 -0.5562 -0.2476
vn 0.9957 0.0798 0.0481
vn -0.9957 0.0798 0.0481
vn 0.8937 0.3876 0.2258
vn -0.9610 -0.2338 -0.1480
vn 0.6711 0.6442 0.3670
vn -0.7933 -0.5048 -0.3404
vn 0.3591 0.8134 0.4576
vn 0.1791 -0.7839 -0.5945
vn -0.5181 -0.6933 -0.5008
vn 0.0000 0.8724 0.4889
vn 0.5181 -0.6933 -0.5008
vn -0.1791 -0.7839 -0.5945
vn -0.3591 0.8134 0.4576
vn 0.7933 -0.5048 -0.3404
vn -0.6711 0.6442 0.3670
vn 0.9610 -0.2338 -0.1480
vn 0.7933 -0.5908 -0.1473
vn 0.3591 0.8805 0.3094
vn 0.1791 -0.8752 -0.4494
vn -0.5181 -0.7698 -0.3728
vn 0.0000 0.9440 0.3300
vn 0.5181 -0.7698 -0.3728
vn -0.1791 -0.8752 -0.4494
vn -0.3591 0.8805 0.3094
vn 0.7933 -0.5562 -0.2476
vn -0.6711 0.6981 0.2495
vn 0.9610 -0.2560 -0.1051
vn -0.8937 0.4210 0.1550
vn 0.9957 0.0869 0.0335
vn -0.9957 0.0869 0.0335
vn 0.8937 0.4210 0.1550
vn -0.9610 -0.2560 -0.1051
vn 0.6711 0.6981 0.2495
vn 0.0000 -0.0000 -1.0000
vn -0.6711 0.7309 0.1245
vn 0.9610 -0.2703 -0.0591
vn -0.8937 0.4415 0.0796
vn 0.9957 0.0914 0.0179
vn -0.9957 0.0914 0.0179
vn 0.8937 0.4415 0.0796
vn -0.9610 -0.2703 -0.0591
vn 0.6711 0.7309 0.1245
vn -0.7933 -0.5908 -0.1473
vn 0.3591 0.9209 0.1518
vn 0.1791 -0.9399 -0.2906
vn -0.5181 -0.8228 -0.2335
vn 0.0000 0.9870 0.1610
vn 0.5181 -0.8228 -0.2335
vn -0.1791 -0.9399 -0.2906
vn -0.3591 0.9209 0.1518
usemtl None
s off
f 1/1/1 2/2/1 4/3/1 3/4/1
f 3/4/2 4/3/2 6/5/2 5/6/2
f 5/6/3 6/5/3 8/7/3 7/8/3
f 7/8/4 8/7/4 10/9/4 9/10/4
f 9/10/5 10/9/5 12/11/5 11/12/5
f 11/12/6 12/11/6 14/13/6 13/14/6
f 13/14/7 14/13/7 16/15/7 15/16/7
f 15/16/8 16/15/8 18/17/8 17/18/8
f 17/18/9 18/17/9 20/19/9 19/20/9
f 19/20/10 20/19/10 22/21/10 21/22/10
f 21/22/11 22/21/11 24/23/11 23/24/11
f 23/24/12 24/23/12 26/25/12 25/26/12
f 25/26/13 26/25/13 28/27/13 27/28/13
f 27/28/14 28/27/14 30/29/14 29/30/14
f 29/30/15 30/29/15 32/31/15 31/32/15
f 14/13/16 12/11/16 40/33/16 41/34/16
f 31/32/17 32/31/17 34/35/17 33/36/17
f 33/36/18 34/35/18 2/37/18 1/38/18
f 1/39/19 3/40/19 5/41/19 7/42/19 9/43/19 11/44/19 13/45/19 15/46/19 17/47/19 19/48/19 21/49/19 23/50/19 25/51/19 27/52/19 29/53/19 31/54/19 33/55/19
f 39/56/20 38/57/20 55/58/20 56/59/20
f 24/23/21 22/21/21 45/60/21 46/61/21
f 34/35/22 32/31/22 50/62/22 51/63/22
f 10/9/23 8/7/23 38/57/23 39/56/23
f 20/19/24 18/17/24 43/64/24 44/65/24
f 30/29/25 28/27/25 48/66/25 49/67/25
f 6/5/26 4/3/26 36/68/26 37/69/26
f 16/15/27 14/13/27 41/34/27 42/70/27
f 26/25/28 24/23/28 46/61/28 47/71/28
f 2/37/29 34/35/29 51/63/29 35/72/29
f 12/11/30 10/9/30 39/56/30 40/33/30
f 22/21/31 20/19/31 44/65/31 45/60/31
f 32/31/32 30/29/32 49/67/32 50/62/32
f 8/7/33 6/5/33 37/69/33 38/57/33
f 18/17/34 16/15/34 42/70/34 43/64/34
f 4/3/35 2/2/35 35/73/35 36/68/35
f 28/27/36 26/25/36 47/71/36 48/66/36
f 59/74/37 58/75/37 75/76/37 76/77/37
f 47/71/38 46/61/38 63/78/38 64/79/38
f 40/33/39 39/56/39 56/59/39 57/80/39
f 48/66/40 47/71/40 64/79/40 65/81/40
f 41/34/41 40/33/41 57/80/41 58/75/41
f 49/67/42 48/66/42 65/81/42 66/82/42
f 42/70/43 41/34/43 58/75/43 59/74/43
f 50/62/44 49/67/44 66/82/44 67/83/44
f 43/64/45 42/70/45 59/74/45 60/84/45
f 36/68/46 35/73/46 52/85/46 53/86/46
f 51/63/47 50/62/47 67/83/47 68/87/47
f 44/65/48 43/64/48 60/84/48 61/88/48
f 37/69/49 36/68/49 53/86/49 54/89/49
f 35/72/50 51/63/50 68/87/50 52/90/50
f 45/60/51 44/65/51 61/88/51 62/91/51
f 38/57/52 37/69/52 54/89/52 55/58/52
f 46/61/53 45/60/53 62/91/53 63/78/53
f 79/92/54 78/93/54 95/94/54 96/95/54
f 67/83/55 66/82/55 83/96/55 84/97/55
f 60/84/56 59/74/56 76/77/56 77/98/56
f 53/86/57 52/85/57 69/99/57 70/100/57
f 68/87/58 67/83/58 84/97/58 85/101/58
f 61/88/59 60/84/59 77/98/59 78/93/59
f 54/89/60 53/86/60 70/100/60 71/102/60
f 52/90/61 68/87/61 85/101/61 69/103/61
f 62/91/62 61/88/62 78/93/62 79/92/62
f 55/58/63 54/89/63 71/102/63 72/104/63
f 63/78/64 62/91/64 79/92/64 80/105/64
f 56/59/65 55/58/65 72/104/65 73/106/65
f 64/79/66 63/78/66 80/105/66 81/107/66
f 57/80/67 56/59/67 73/106/67 74/108/67
f 65/81/68 64/79/68 81/107/68 82/109/68
f 58/75/69 57/80/69 74/108/69 75/76/69
f 66/82/70 65/81/70 82/109/70 83/96/70
f 99/110/71 98/111/71 115/112/71 116/113/71
f 72/104/72 71/102/72 88/114/72 89/115/72
f 80/105/73 79/92/73 96/95/73 97/116/73
f 73/106/74 72/104/74 89/115/74 90/117/74
f 81/107/75 80/105/75 97/116/75 98/111/75
f 74/108/76 73/106/76 90/117/76 91/118/76
f 82/109/77 81/107/77 98/111/77 99/110/77
f 75/76/78 74/108/78 91/118/78 92/119/78
f 83/96/79 82/109/79 99/110/79 100/120/79
f 76/77/80 75/76/80 92/119/80 93/121/80
f 84/97/81 83/96/81 100/120/81 101/122/81
f 77/98/82 76/77/82 93/121/82 94/123/82
f 70/100/83 69/99/83 86/124/83 87/125/83
f 85/101/84 84/97/84 101/122/84 102/126/84
f 78/93/85 77/98/85 94/123/85 95/94/85
f 71/102/86 70/100/86 87/125/86 88/114/86
f 69/103/87 85/101/87 102/126/87 86/127/87
f 119/128/88 118/129/88 135/130/88 136/131/88
f 92/119/89 91/118/89 108/132/89 109/133/89
f 100/120/90 99/110/90 116/113/90 117/134/90
f 93/121/91 92/119/91 109/133/91 110/135/91
f 101/122/92 100/120/92 117/134/92 118/129/92
f 94/123/93 93/121/93 110/135/93 111/136/93
f 87/125/94 86/124/94 103/137/94 104/138/94
f 102/126/95 101/122/95 118/129/95 119/128/95
f 95/94/96 94/123/96 111/136/96 112/139/96
f 88/114/97 87/125/97 104/138/97 105/140/97
f 86/127/98 102/126/98 119/128/98 103/141/98
f 96/95/99 95/94/99 112/139/99 113/142/99
f 89/115/100 88/114/100 105/140/100 106/143/100
f 97/116/101 96/95/101 113/142/101 114/144/101
f 90/117/102 89/115/102 106/143/102 107/145/102
f 98/111/103 97/116/103 114/144/103 115/112/103
f 91/118/104 90/117/104 107/145/104 108/132/104
f 132/146/105 131/147/105 148/148/105 149/149/105
f 112/139/106 111/136/106 128/150/106 129/151/106
f 105/140/107 104/138/107 121/152/107 122/153/107
f 103/141/108 119/128/108 136/131/108 120/154/108
f 113/142/109 112/139/109 129/151/109 130/155/109
f 106/143/110 105/140/110 122/153/110 123/156/110
f 114/144/111 113/142/111 130/155/111 131/147/111
f 107/145/112 106/143/112 123/156/112 124/157/112
f 115/112/113 114/144/113 131/147/113 132/146/113
f 108/132/114 107/145/114 124/157/114 125/158/114
f 116/113/115 115/112/115 132/146/115 133/159/115
f 109/133/116 108/132/116 125/158/116 126/160/116
f 117/134/117 116/113/117 133/159/117 134/161/117
f 110/135/118 109/133/118 126/160/118 127/162/118
f 118/129/119 117/134/119 134/161/119 135/130/119
f 111/136/120 110/135/120 127/162/120 128/150/120
f 104/138/121 103/137/121 120/163/121 121/152/121
f 152/164/122 151/165/122 168/166/122 169/167/122
f 125/158/123 124/157/123 141/168/123 142/169/123
f 133/159/124 132/146/124 149/149/124 150/170/124
f 126/160/125 125/158/125 142/169/125 143/171/125
f 134/161/126 133/159/126 150/170/126 151/165/126
f 127/162/127 126/160/127 143/171/127 144/172/127
f 135/130/128 134/161/128 151/165/128 152/164/128
f 128/150/129 127/162/129 144/172/129 145/173/129
f 121/152/130 120/163/130 137/174/130 138/175/130
f 136/131/131 135/130/131 152/164/131 153/176/131
f 129/151/132 128/150/132 145/173/132 146/177/132
f 122/153/133 121/152/133 138/175/133 139/178/133
f 120/154/134 136/131/134 153/176/134 137/179/134
f 130/155/135 129/151/135 146/177/135 147/180/135
f 123/156/136 122/153/136 139/178/136 140/181/136
f 131/147/137 130/155/137 147/180/137 148/148/137
f 124/157/138 123/156/138 140/181/138 141/168/138
f 157/182/139 156/183/139 173/184/139 174/185/139
f 145/173/140 144/172/140 161/186/140 162/187/140
f 138/175/141 137/174/141 154/188/141 155/189/141
f 153/176/142 152/164/142 169/167/142 170/190/142
f 146/177/143 145/173/143 162/187/143 163/191/143
f 139/178/144 138/175/144 155/189/144 156/183/144
f 137/179/145 153/176/145 170/190/145 154/192/145
f 147/180/146 146/177/146 163/191/146 164/193/146
f 140/181/147 139/178/147 156/183/147 157/182/147
f 148/148/148 147/180/148 164/193/148 165/194/148
f 141/168/149 140/181/149 157/182/149 158/195/149
f 149/149/150 148/148/150 165/194/150 166/196/150
f 142/169/151 141/168/151 158/195/151 159/197/151
f 150/170/152 149/149/152 166/196/152 167/198/152
f 143/171/153 142/169/153 159/197/153 160/199/153
f 151/165/154 150/170/154 167/198/154 168/166/154
f 144/172/155 143/171/155 160/199/155 161/186/155
f 172/200/156 171/201/156 187/202/156 186/203/156 185/204/156 184/205/156 183/206/156 182/207/156 181/208/156 180/209/156 179/210/156 178/211/156 177/212/156 176/213/156 175/214/156 174/215/156 173/216/156
f 165/194/157 164/193/157 181/217/157 182/218/157
f 158/195/158 157/182/158 174/185/158 175/219/158
f 166/196/159 165/194/159 182/218/159 183/220/159
f 159/197/160 158/195/160 175/219/160 176/221/160
f 167/198/161 166/196/161 183/220/161 184/222/161
f 160/199/162 159/197/162 176/221/162 177/223/162
f 168/166/163 167/198/163 184/222/163 185/224/163
f 161/186/164 160/199/164 177/223/164 178/225/164
f 169/167/165 168/166/165 185/224/165 186/226/165
f 162/187/166 161/186/166 178/225/166 179/227/166
f 155/189/167 154/188/167 171/228/167 172/229/167
f 170/190/168 169/167/168 186/226/168 187/230/168
f 163/191/169 162/187/169 179/227/169 180/231/169
f 156/183/170 155/189/170 172/229/170 173/184/170
f 154/192/171 170/190/171 187/230/171 171/232/171
f 164/193/172 163/191/172 180/231/172 181/217/172
