# Blender v2.81 (sub 16) OBJ File: 'LudumDare_47.blend'
# www.blender.org
mtllib Room_WallWindow.mtl
o RoomWall.001_Cube.039
v 3.000000 0.000000 -3.000000
v 3.000000 0.000000 3.000000
v -2.500000 0.000000 -3.000000
v -2.500000 0.000000 3.000000
v -3.000000 0.500000 -3.000000
v -3.000000 0.500000 3.000000
v -3.000000 3.500000 -3.000000
v -3.000000 3.500000 3.000000
v 3.000000 4.000000 -3.000000
v 3.000000 4.000000 3.000000
v -2.500000 4.000000 -3.000000
v -2.500000 4.000000 3.000000
v -3.342462 2.869764 1.910542
v -3.342462 1.140116 1.910542
v -3.342462 1.140116 -1.898136
v -3.342462 2.869764 -1.898136
v -3.000000 1.140046 -1.812457
v -3.000000 1.083314 -1.755726
v -3.000000 1.060175 -1.859566
v -3.000000 1.083314 1.755726
v -3.000000 1.140046 1.812457
v -3.000000 1.060175 1.859566
v -3.000000 2.916687 -1.755726
v -3.000000 2.859956 -1.812457
v -3.000000 2.939826 -1.859566
v -3.000000 2.859956 1.812457
v -3.000000 2.916687 1.755726
v -3.000000 2.939826 1.859566
v -3.710518 2.745237 1.584276
v -3.710518 2.688506 1.641007
v -3.710518 1.311495 1.641007
v -3.710518 1.254764 1.584276
v -3.710518 1.254764 -1.584276
v -3.710518 1.311495 -1.641007
v -3.710518 2.688506 -1.641007
v -3.710518 2.745237 -1.584276
v -2.902831 2.699957 1.652629
v -2.917273 2.688339 1.641007
v -2.917273 2.745237 1.584109
v -2.902831 2.756858 1.595728
v -2.902831 1.243143 1.595728
v -2.917273 1.254764 1.584109
v -2.917273 1.311662 1.641007
v -2.902831 1.300043 1.652629
v -2.902831 1.300043 -1.652629
v -2.917273 1.311662 -1.641007
v -2.917273 1.254764 -1.584109
v -2.902831 1.243143 -1.595728
v -2.902831 2.756858 -1.595728
v -2.917273 2.745237 -1.584109
v -2.917273 2.688339 -1.641007
v -2.902831 2.699957 -1.652629
v -2.917273 2.859811 1.812457
v -2.902831 2.848164 1.800835
v -2.902831 2.905065 1.743935
v -2.917273 2.916687 1.755581
v -2.917273 1.083314 1.755581
v -2.902831 1.094936 1.743935
v -2.902831 1.151837 1.800835
v -2.917273 1.140190 1.812457
v -2.917273 1.140190 -1.812457
v -2.902831 1.151837 -1.800835
v -2.902831 1.094936 -1.743935
v -2.917273 1.083314 -1.755581
v -2.917273 2.916687 -1.755581
v -2.902831 2.905065 -1.743935
v -2.902831 2.848164 -1.800835
v -2.917273 2.859811 -1.812457
vt 0.625000 0.500000
vt 0.875000 0.500000
vt 0.875000 0.750000
vt 0.625000 0.750000
vt 0.875000 0.500000
vt 0.875000 0.750000
vt 0.875000 0.523341
vt 0.875000 0.527457
vt 0.875000 0.722543
vt 0.875000 0.726659
vt 0.875000 0.750000
vt 0.875000 0.500000
vt 0.875000 0.500000
vt 0.875000 0.750000
vt 0.625000 0.500000
vt 0.625000 0.750000
vt 0.875000 0.527457
vt 0.875000 0.722543
vt 0.875000 0.722535
vt 0.875000 0.527465
vt 0.875000 0.533830
vt 0.875000 0.533830
vt 0.875000 0.536982
vt 0.875000 0.536991
vt 0.875000 0.725695
vt 0.875000 0.725695
vt 0.875000 0.722535
vt 0.875000 0.527465
vt 0.875000 0.524305
vt 0.875000 0.524305
vt 0.875000 0.536346
vt 0.875000 0.528112
vt 0.875000 0.524950
vt 0.875000 0.533184
vt 0.875000 0.524305
vt 0.875000 0.524305
vt 0.875000 0.725695
vt 0.875000 0.726659
vt 0.875000 0.523341
vt 0.875000 0.721888
vt 0.875000 0.713654
vt 0.875000 0.716816
vt 0.875000 0.725050
vt 0.875000 0.713654
vt 0.875000 0.536346
vt 0.875000 0.528112
vt 0.875000 0.721888
vt 0.875000 0.536991
vt 0.875000 0.713009
vt 0.875000 0.713018
vt 0.875000 0.536982
vt 0.875000 0.533184
vt 0.875000 0.524950
vt 0.875000 0.524305
vt 0.875000 0.725695
vt 0.875000 0.725695
vt 0.875000 0.716170
vt 0.875000 0.716170
vt 0.875000 0.713009
vt 0.875000 0.713018
vt 0.875000 0.716816
vt 0.875000 0.725050
vt 0.875000 0.533830
vt 0.875000 0.533830
vt 0.875000 0.716170
vt 0.875000 0.716170
vt 0.875000 0.716170
vt 0.875000 0.533830
vt 0.875000 0.533830
vt 0.875000 0.716170
vn 0.0000 1.0000 0.0000
vn 0.7071 0.7071 0.0000
vn 1.0000 0.0000 0.0000
vn 0.7071 -0.7071 0.0000
vn 0.0000 -1.0000 0.0000
vn -0.0001 0.7071 0.7071
vn 0.0012 -0.7071 0.7071
vn 0.0012 -0.7071 -0.7071
vn 0.0012 0.7071 -0.7071
vn 0.0000 0.0000 -1.0000
vn 0.0000 0.0000 1.0000
vn -0.0001 0.7071 -0.7071
vn -0.0001 -0.7071 0.7071
vn 0.0012 0.7071 0.7071
vn 0.7516 0.4665 -0.4664
vn 0.7516 -0.4665 -0.4665
vn 0.7516 -0.4665 0.4665
vn 0.7516 0.4665 0.4665
vn 0.7512 0.4668 -0.4668
vn 0.7512 -0.4668 -0.4668
vn 0.7512 -0.4668 0.4668
vn 0.7512 0.4668 0.4668
vn 0.6269 0.0000 -0.7791
vn 0.6269 -0.7791 0.0000
vn 0.6269 0.7791 0.0000
vn 0.6269 0.0000 0.7791
vn -0.0001 -0.7071 -0.7071
usemtl Material.030
s off
f 1/1/1 3/2/1 4/3/1 2/4/1
f 4/3/2 3/2/2 5/5/2 6/6/2
f 19/7/3 18/8/3 20/9/3 22/10/3 6/6/3 5/5/3
f 8/11/4 7/12/4 11/13/4 12/14/4
f 12/14/5 11/13/5 9/15/5 10/16/5
f 23/17/1 27/18/1 56/19/1 65/20/1
f 46/21/6 34/22/6 33/23/6 47/24/6
f 60/25/7 21/26/7 20/9/7 57/27/7
f 64/28/8 18/8/8 17/29/8 61/30/8
f 48/31/3 63/32/3 62/33/3 45/34/3
f 23/17/9 65/20/9 68/35/9 24/36/9
f 22/10/3 21/26/3 26/37/3 28/38/3 8/11/3 6/6/3
f 28/38/3 27/18/3 23/17/3 25/39/3 7/12/3 8/11/3
f 58/40/3 41/41/3 44/42/3 59/43/3
f 48/31/3 41/41/3 58/40/3 63/32/3
f 40/44/3 49/45/3 66/46/3 55/47/3
f 50/48/5 39/49/5 29/50/5 36/51/5
f 25/39/3 24/36/3 17/29/3 19/7/3 5/5/3 7/12/3
f 66/46/3 49/45/3 52/52/3 67/53/3
f 17/29/3 18/54/3 19/7/3
f 20/9/3 21/26/3 22/10/3
f 23/17/3 24/36/3 25/39/3
f 26/37/3 27/55/3 28/38/3
f 17/29/10 24/36/10 68/35/10 61/30/10
f 20/9/5 18/8/5 64/28/5 57/27/5
f 26/37/11 21/26/11 60/25/11 53/56/11
f 31/57/12 43/58/12 42/59/12 32/60/12
f 44/42/3 37/61/3 54/62/3 59/43/3
f 35/63/13 51/64/13 50/48/13 36/51/13
f 52/52/3 45/34/3 62/33/3 67/53/3
f 46/21/11 51/64/11 35/63/11 34/22/11
f 42/59/1 47/24/1 33/23/1 32/60/1
f 38/65/10 43/58/10 31/57/10 30/66/10
f 56/19/14 27/18/14 26/37/14 53/56/14
f 40/44/3 55/47/3 54/62/3 37/61/3
f 66/46/15 67/53/15 68/35/15 65/20/15
f 62/33/16 63/32/16 64/28/16 61/30/16
f 58/40/17 59/43/17 60/25/17 57/27/17
f 54/62/18 55/47/18 56/19/18 53/56/18
f 42/59/19 43/58/19 44/42/19 41/41/19
f 38/65/20 39/49/20 40/44/20 37/61/20
f 50/48/21 51/64/21 52/52/21 49/45/21
f 46/21/22 47/24/22 48/31/22 45/34/22
f 37/61/23 44/42/23 43/58/23 38/65/23
f 39/49/24 50/48/24 49/45/24 40/44/24
f 65/20/25 56/19/25 55/47/25 66/46/25
f 53/56/26 60/25/26 59/43/26 54/62/26
f 63/32/24 58/40/24 57/27/24 64/28/24
f 67/53/23 62/33/23 61/30/23 68/35/23
f 47/24/25 42/59/25 41/41/25 48/31/25
f 45/34/26 52/52/26 51/64/26 46/21/26
f 29/50/27 39/49/27 38/65/27 30/66/27
usemtl Glass
f 14/67/3 15/68/3 16/69/3 13/70/3
