# Blender v2.81 (sub 16) OBJ File: 'LudumDare_47.blend'
# www.blender.org
mtllib Room_FloorHole.mtl.mtl
o RoomMiddleHole.001_Cube.032
v -12.000000 9.000000 10.000000
v -12.000000 9.000002 4.000000
v -18.000000 9.000001 10.000000
v -18.000000 9.000002 4.000000
v -18.000000 5.000001 10.000000
v -18.000000 5.000002 4.000000
v -12.000000 5.000000 10.000000
v -12.000000 5.000001 4.000000
v -16.500000 5.000001 8.500000
v -16.500000 5.000002 5.500000
v -13.500000 5.000001 5.500000
v -13.500000 5.000001 8.500000
v -12.000000 9.000002 4.000000
v -18.000000 9.000002 4.000000
v -12.000000 9.000000 10.000000
v -18.000000 9.000001 10.000000
v -16.500000 5.000001 8.500000
v -16.500000 5.000002 5.500000
v -13.500000 5.000001 5.500000
v -13.500000 5.000001 8.500000
v -18.000000 5.000001 10.000000
v -18.000000 5.000002 4.000000
v -12.000000 5.000001 4.000000
v -12.000000 5.000000 10.000000
v -12.000000 9.000002 4.000000
v -18.000000 9.000002 4.000000
v -12.000000 9.000000 10.000000
v -18.000000 9.000001 10.000000
v -16.500000 5.000001 8.500000
v -16.500000 5.000002 5.500000
v -13.500000 5.000001 5.500000
v -13.500000 5.000001 8.500000
v -18.000000 5.000001 10.000000
v -18.000000 5.000002 4.000000
v -12.000000 5.000001 4.000000
v -12.000000 5.000000 10.000000
v -12.000000 9.000002 4.000000
v -18.000000 9.000002 4.000000
v -12.000000 9.000000 10.000000
v -18.000000 9.000001 10.000000
v -16.500000 5.000001 8.500000
v -16.500000 5.000002 5.500000
v -13.500000 5.000001 5.500000
v -13.500000 5.000001 8.500000
v -18.000000 5.000001 10.000000
v -18.000000 5.000002 4.000000
v -12.000000 5.000001 4.000000
v -12.000000 5.000000 10.000000
vt 0.625000 0.500000
vt 0.625000 0.750000
vt 0.875000 0.750000
vt 0.875000 0.500000
vt 0.812500 0.562500
vt 0.875000 0.500000
vt 0.875000 0.750000
vt 0.812500 0.687500
vt 0.687500 0.687500
vt 0.625000 0.750000
vt 0.625000 0.500000
vt 0.687500 0.562500
vt 0.625000 0.750000
vt 0.875000 0.750000
vt 0.875000 0.750000
vt 0.625000 0.750000
vt 0.875000 0.500000
vt 0.875000 0.750000
vt 0.875000 0.750000
vt 0.875000 0.500000
vt 0.812500 0.687500
vt 0.687500 0.687500
vt 0.687500 0.687500
vt 0.812500 0.687500
vt 0.625000 0.500000
vt 0.625000 0.500000
vt 0.625000 0.500000
vt 0.625000 0.500000
vt 0.875000 0.500000
vt 0.625000 0.750000
vt 0.687500 0.562500
vt 0.812500 0.562500
vt 0.625000 0.750000
vt 0.625000 0.500000
vt 0.875000 0.500000
vt 0.625000 0.500000
vt 0.687500 0.562500
vt 0.687500 0.562500
vt 0.687500 0.687500
vt 0.875000 0.500000
vt 0.875000 0.500000
vt 0.875000 0.750000
vt 0.625000 0.750000
vt 0.625000 0.750000
vt 0.812500 0.562500
vt 0.875000 0.750000
vt 0.812500 0.562500
vt 0.812500 0.687500
vn 0.0000 1.0000 0.0000
vn 0.0000 -1.0000 -0.0000
vn 0.0000 0.0000 1.0000
usemtl Material.028
s off
f 1/1/1 2/2/1 4/3/1 3/4/1
f 9/5/2 5/6/2 6/7/2 10/8/2
f 11/9/2 8/10/2 7/11/2 12/12/2
f 10/8/2 6/7/2 8/10/2 11/9/2
f 12/12/2 7/11/2 5/6/2 9/5/2
f 23/13/3 22/14/3 34/15/3 35/16/3
f 16/17/3 14/18/3 26/19/3 28/20/3
f 18/21/3 19/22/3 31/23/3 30/24/3
f 24/25/3 23/13/3 35/16/3 36/26/3
f 15/27/3 16/17/3 28/20/3 27/28/3
f 5/6/3 7/11/3 24/25/3 21/29/3
f 2/2/3 1/1/3 15/27/3 13/30/3
f 6/7/3 5/6/3 21/29/3 22/14/3
f 11/9/3 12/12/3 20/31/3 19/22/3
f 1/1/3 3/4/3 16/17/3 15/27/3
f 7/11/3 8/10/3 23/13/3 24/25/3
f 10/8/3 11/9/3 19/22/3 18/21/3
f 3/4/3 4/3/3 14/18/3 16/17/3
f 8/10/3 6/7/3 22/14/3 23/13/3
f 4/3/3 2/2/3 13/30/3 14/18/3
f 12/12/3 9/5/3 17/32/3 20/31/3
f 9/5/3 10/8/3 18/21/3 17/32/3
f 36/26/3 35/16/3 47/33/3 48/34/3
f 27/28/3 28/20/3 40/35/3 39/36/3
f 31/23/3 32/37/3 44/38/3 43/39/3
f 34/15/3 33/40/3 45/41/3 46/42/3
f 25/43/3 27/28/3 39/36/3 37/44/3
f 14/18/3 13/30/3 25/43/3 26/19/3
f 20/31/3 17/32/3 29/45/3 32/37/3
f 17/32/3 18/21/3 30/24/3 29/45/3
f 21/29/3 24/25/3 36/26/3 33/40/3
f 13/30/3 15/27/3 27/28/3 25/43/3
f 22/14/3 21/29/3 33/40/3 34/15/3
f 19/22/3 20/31/3 32/37/3 31/23/3
f 39/36/2 40/35/2 38/46/2 37/44/2
f 41/47/1 42/48/1 46/42/1 45/41/1
f 43/39/1 44/38/1 48/34/1 47/33/1
f 42/48/1 43/39/1 47/33/1 46/42/1
f 44/38/1 41/47/1 45/41/1 48/34/1
f 30/24/3 31/23/3 43/39/3 42/48/3
f 28/20/3 26/19/3 38/46/3 40/35/3
f 35/16/3 34/15/3 46/42/3 47/33/3
f 26/19/3 25/43/3 37/44/3 38/46/3
f 32/37/3 29/45/3 41/47/3 44/38/3
f 29/45/3 30/24/3 42/48/3 41/47/3
f 33/40/3 36/26/3 48/34/3 45/41/3
