# Blender v2.81 (sub 16) OBJ File: 'LudumDare_47.blend'
# www.blender.org
o RoomDoor_Cube.010
v 2.500000 0.000000 -3.000000
v 3.000000 0.500000 -3.000000
v 3.000000 -0.000000 -2.500000
v -2.500000 0.000000 -3.000000
v -3.000000 0.000000 -2.500000
v -3.000000 0.500000 -3.000000
v 3.000000 3.500000 -3.000000
v -3.000000 3.500000 -3.000000
v 2.500000 4.000000 -3.000000
v 3.000000 4.000000 -2.500000
v -2.500000 4.000000 -3.000000
v -3.000000 4.000000 -2.500000
v 3.000000 -0.000000 3.000000
v -3.000000 0.000000 3.000000
v 3.000000 4.000000 3.000000
v -3.000000 4.000000 3.000000
vt 0.625000 0.500000
vt 0.875000 0.500000
vt 0.875000 0.750000
vt 0.625000 0.750000
vt 0.625000 0.500000
vt 0.875000 0.750000
vt 0.875000 0.500000
vt 0.875000 0.500000
vt 0.875000 0.750000
vt 0.625000 0.750000
vt 0.625000 0.750000
vt 0.625000 0.500000
vt 0.625000 0.750000
vt 0.875000 0.750000
vt 0.875000 0.750000
vt 0.625000 0.750000
vn 0.0000 1.0000 0.0000
vn -0.5774 0.5774 0.5773
vn 0.5774 0.5774 0.5774
vn 0.5774 -0.5774 0.5774
vn -0.5774 -0.5774 0.5773
vn -0.0000 -1.0000 0.0000
s off
f 1/1/1 4/2/1 5/3/1 3/4/1
f 1/1/2 3/4/2 2/5/2
f 5/3/3 4/2/3 6/6/3
f 8/7/4 11/8/4 12/9/4
f 7/10/5 10/11/5 9/12/5
f 12/9/6 11/8/6 9/12/6 10/11/6
f 12/9/6 10/11/6 15/13/6 16/14/6
f 3/4/1 5/3/1 14/15/1 13/16/1
l 6 8
l 7 2
