# Blender v2.81 (sub 16) OBJ File: 'LudumDare_47.blend'
# www.blender.org
o Spoon_Cube.027
v -0.010568 -0.010568 0.125000
v -0.010568 0.010568 0.125000
v -0.010568 -0.010568 -0.125000
v -0.009580 0.010568 -0.130615
v 0.010568 -0.010568 0.125000
v 0.010568 0.010568 0.125000
v 0.010568 -0.010568 -0.125000
v 0.009575 0.010568 -0.130615
v -0.009578 0.010568 -0.201276
v -0.010568 -0.010568 -0.203349
v 0.010568 -0.010568 -0.203349
v 0.009573 0.010568 -0.201276
v -0.018683 0.010568 -0.135218
v -0.015696 -0.010568 -0.128601
v 0.018577 0.010568 -0.135218
v 0.016190 -0.010568 -0.128601
v -0.019356 0.010568 -0.195411
v -0.015210 -0.010568 -0.199748
v 0.019250 0.010568 -0.195411
v 0.017903 -0.010568 -0.199748
v -0.029769 0.010568 -0.148943
v -0.024267 -0.004345 -0.143836
v -0.029769 0.010568 -0.179517
v -0.024267 -0.004345 -0.184513
v 0.029722 0.010568 -0.148946
v 0.024221 -0.004345 -0.143836
v 0.029722 0.010568 -0.179514
v 0.024221 -0.004345 -0.184513
v -0.010568 0.010568 -0.125000
v 0.010568 0.010568 -0.125000
v -0.010568 0.010568 -0.206890
v 0.010568 0.010568 -0.206890
v 0.020515 0.010568 -0.129614
v 0.021264 0.010568 -0.201010
v -0.020627 0.010568 -0.129614
v -0.021376 0.010568 -0.201010
v -0.033292 0.010568 -0.184513
v -0.033292 0.010568 -0.143836
v 0.033246 0.010568 -0.143836
v 0.033246 0.010568 -0.184513
v 0.007735 0.002912 -0.130615
v 0.007734 0.002912 -0.201276
v -0.007748 0.002912 -0.201276
v -0.007750 0.002912 -0.130615
v 0.015013 0.002912 -0.135218
v 0.015557 0.002912 -0.195411
v -0.015653 0.002912 -0.195411
v -0.015109 0.002912 -0.135218
v -0.024071 0.002912 -0.179517
v -0.024071 0.002912 -0.148943
v 0.024023 0.002912 -0.148946
v 0.024023 0.002912 -0.179514
vt 0.375000 0.000000
vt 0.625000 0.000000
vt 0.625000 0.250000
vt 0.375000 0.250000
vt 0.875000 0.500000
vt 0.875000 0.500000
vt 0.875000 0.500000
vt 0.875000 0.500000
vt 0.375000 0.500000
vt 0.625000 0.500000
vt 0.625000 0.750000
vt 0.375000 0.750000
vt 0.625000 1.000000
vt 0.375000 1.000000
vt 0.125000 0.500000
vt 0.125000 0.750000
vt 0.875000 0.500000
vt 0.875000 0.750000
vt 0.375000 0.250000
vt 0.625000 0.250000
vt 0.625000 0.500000
vt 0.375000 0.500000
vt 0.625000 0.500000
vt 0.875000 0.500000
vt 0.875000 0.500000
vt 0.625000 0.500000
vt 0.125000 0.500000
vt 0.125000 0.500000
vt 0.125000 0.500000
vt 0.625000 0.250000
vt 0.375000 0.250000
vt 0.375000 0.250000
vt 0.625000 0.250000
vt 0.375000 0.500000
vt 0.375000 0.500000
vt 0.375000 0.500000
vt 0.375000 0.500000
vt 0.625000 0.250000
vt 0.375000 0.250000
vt 0.625000 0.500000
vt 0.625000 0.500000
vt 0.625000 0.500000
vt 0.625000 0.500000
vt 0.625000 0.500000
vt 0.625000 0.500000
vt 0.375000 0.250000
vt 0.625000 0.250000
vt 0.875000 0.500000
vt 0.875000 0.500000
vt 0.125000 0.500000
vt 0.125000 0.500000
vt 0.625000 0.500000
vt 0.625000 0.500000
vt 0.875000 0.500000
vt 0.875000 0.500000
vt 0.875000 0.500000
vt 0.875000 0.500000
vt 0.625000 0.500000
vt 0.875000 0.500000
vt 0.625000 0.500000
vt 0.875000 0.500000
vt 0.875000 0.500000
vt 0.875000 0.500000
vt 0.875000 0.500000
vt 0.625000 0.500000
vt 0.625000 0.500000
vt 0.625000 0.500000
vt 0.625000 0.500000
vn -1.0000 0.0000 0.0000
vn 0.7255 0.4393 -0.5299
vn 1.0000 0.0000 0.0000
vn 0.0000 0.0000 1.0000
vn 0.0000 -1.0000 0.0000
vn 0.0000 1.0000 0.0000
vn 0.0000 -0.1652 -0.9863
vn -0.8098 -0.3575 -0.4651
vn 0.6552 -0.7554 0.0100
vn -0.4755 -0.0344 0.8790
vn -0.5154 -0.1706 -0.8398
vn -0.7245 0.4383 -0.5319
vn 0.4665 -0.0265 0.8841
vn 0.4611 -0.1363 -0.8768
vn -0.8555 -0.5178 0.0000
vn -0.8033 -0.2965 0.5165
vn 0.4810 0.1698 -0.8601
vn -0.5767 -0.8169 -0.0025
vn 0.8555 -0.5178 0.0000
vn 0.8493 -0.3069 -0.4296
vn 0.8107 -0.2859 0.5110
vn 0.7608 0.4670 0.4507
vn 0.5421 0.1959 0.8172
vn -0.4850 0.1711 -0.8576
vn -0.8022 0.5971 0.0000
vn 0.8022 0.5970 0.0000
vn -0.5458 0.1972 0.8144
vn -0.7601 0.4662 0.4528
vn 0.0000 0.0000 -1.0000
g Spoon_Cube.027_None
s off
f 1/1/1 2/2/1 29/3/1 3/4/1
f 21/5/2 13/6/2 48/7/2 50/8/2
f 7/9/3 30/10/3 6/11/3 5/12/3
f 5/12/4 6/11/4 2/13/4 1/14/4
f 3/15/5 7/9/5 5/12/5 1/16/5
f 30/10/6 29/17/6 2/18/6 6/11/6
f 10/19/7 31/20/7 32/21/7 11/22/7
f 12/23/4 9/24/4 43/25/4 42/26/4
f 10/27/5 3/15/5 14/28/5 18/29/5
f 7/9/5 3/15/5 10/27/5 11/22/5
f 36/30/8 18/31/8 24/32/8 37/33/8
f 16/34/9 20/35/9 28/36/9 26/37/9
f 3/4/10 29/3/10 35/38/10 14/39/10
f 31/20/11 10/19/11 18/31/11 36/30/11
f 7/9/5 11/22/5 20/35/5 16/34/5
f 15/40/12 25/41/12 51/42/12 45/43/12
f 30/10/13 7/9/13 16/34/13 33/44/13
f 11/22/14 32/21/14 34/45/14 20/35/14
f 22/46/15 38/47/15 37/33/15 24/32/15
f 14/39/16 35/38/16 38/47/16 22/46/16
f 13/6/17 4/48/17 44/49/17 48/7/17
f 18/29/18 14/28/18 22/50/18 24/51/18
f 39/52/19 26/37/19 28/36/19 40/53/19
f 20/35/20 34/45/20 40/53/20 28/36/20
f 33/44/21 16/34/21 26/37/21 39/52/21
f 17/54/22 23/55/22 49/56/22 47/57/22
f 8/58/6 4/48/6 29/17/6 30/10/6
f 9/24/6 12/23/6 32/21/6 31/59/6
f 15/40/6 8/58/6 30/10/6 33/44/6
f 12/23/6 19/60/6 34/45/6 32/21/6
f 4/48/6 13/6/6 35/61/6 29/17/6
f 17/54/6 9/24/6 31/59/6 36/62/6
f 21/5/6 23/55/6 37/63/6 38/64/6
f 23/55/6 17/54/6 36/62/6 37/63/6
f 13/6/6 21/5/6 38/64/6 35/61/6
f 27/65/6 25/41/6 39/52/6 40/53/6
f 19/60/6 27/65/6 40/53/6 34/45/6
f 25/41/6 15/40/6 33/44/6 39/52/6
f 44/49/6 41/66/6 42/26/6 43/25/6
f 42/26/6 41/66/6 45/43/6 46/67/6
f 44/49/6 43/25/6 47/57/6 48/7/6
f 48/7/6 47/57/6 49/56/6 50/8/6
f 46/67/6 45/43/6 51/42/6 52/68/6
f 9/24/23 17/54/23 47/57/23 43/25/23
f 8/58/24 15/40/24 45/43/24 41/66/24
f 25/41/25 27/65/25 52/68/25 51/42/25
f 23/55/26 21/5/26 50/8/26 49/56/26
f 19/60/27 12/23/27 42/26/27 46/67/27
f 27/65/28 19/60/28 46/67/28 52/68/28
f 4/48/29 8/58/29 41/66/29 44/49/29
