# Blender v2.81 (sub 16) OBJ File: 'LudumDare_47.blend'
# www.blender.org
o Cube.001_Cube.002
v -1.000000 0.415591 0.014911
v -1.000000 0.520317 0.014911
v -1.000000 0.415591 -0.735526
v -1.000000 0.520317 -0.735526
v -1.019522 0.415591 -0.735526
v -1.019522 0.415591 0.014911
v -1.114531 0.520317 0.014911
v -1.114531 0.520317 -0.735526
v -1.102465 -0.068455 -0.735526
v -1.102465 -0.068455 0.014911
v -1.232335 -0.068455 0.014911
v -1.232335 -0.068455 -0.735526
v 1.000000 0.415591 0.014911
v 1.000000 0.520317 0.014911
v 1.000000 0.415591 -0.735526
v 1.000000 0.520317 -0.735526
v 1.019522 0.415591 -0.735526
v 1.019522 0.415591 0.014911
v 1.114531 0.520317 0.014911
v 1.114531 0.520317 -0.735526
v 1.102465 -0.068455 -0.735526
v 1.102465 -0.068455 0.014911
v 1.232335 -0.068455 0.014911
v 1.232335 -0.068455 -0.735526
v 0.000000 0.415591 -0.735526
v 0.000000 0.520317 -0.735526
v 0.000000 0.415591 0.014911
v 0.000000 0.520317 0.014911
vt 0.625000 0.250000
vt 0.375000 0.250000
vt 0.375000 0.250000
vt 0.625000 0.250000
vt 0.375000 0.875000
vt 0.625000 0.875000
vt 0.625000 1.000000
vt 0.375000 1.000000
vt 0.750000 0.500000
vt 0.875000 0.500000
vt 0.875000 0.750000
vt 0.750000 0.750000
vt 0.375000 0.250000
vt 0.625000 0.250000
vt 0.625000 1.000000
vt 0.375000 1.000000
vt 0.875000 0.500000
vt 0.875000 0.750000
vt 0.125000 0.500000
vt 0.125000 0.750000
vt 0.125000 0.750000
vt 0.125000 0.500000
vt 0.375000 0.000000
vt 0.625000 0.000000
vt 0.625000 1.000000
vt 0.375000 1.000000
vt 0.875000 0.500000
vt 0.875000 0.750000
vt 0.125000 0.750000
vt 0.125000 0.500000
vt 0.625000 0.375000
vt 0.375000 0.375000
vt 0.250000 0.500000
vt 0.250000 0.750000
vt 0.625000 0.250000
vt 0.625000 0.250000
vt 0.375000 0.250000
vt 0.375000 0.250000
vt 0.375000 1.000000
vt 0.625000 1.000000
vt 0.875000 0.750000
vt 0.875000 0.500000
vt 0.625000 0.250000
vt 0.375000 0.250000
vt 0.375000 1.000000
vt 0.625000 1.000000
vt 0.875000 0.750000
vt 0.875000 0.500000
vt 0.125000 0.500000
vt 0.125000 0.500000
vt 0.125000 0.750000
vt 0.125000 0.750000
vt 0.375000 0.000000
vt 0.625000 0.000000
vt 0.375000 1.000000
vt 0.625000 1.000000
vt 0.875000 0.750000
vt 0.875000 0.500000
vt 0.125000 0.500000
vt 0.125000 0.750000
vn 0.0000 0.0000 -1.0000
vn 0.0000 0.0000 1.0000
vn 0.0000 1.0000 0.0000
vn 0.0000 -1.0000 0.0000
vn -0.9806 0.1962 0.0000
vn 0.9856 -0.1689 0.0000
vn 0.9806 0.1962 0.0000
vn -0.9856 -0.1689 0.0000
g Cube.001_Cube.002_None
s off
f 4/1/1 3/2/1 5/3/1 8/4/1
f 27/5/2 28/6/2 2/7/2 1/8/2
f 26/9/3 4/10/3 2/11/3 28/12/3
f 8/4/1 5/3/1 9/13/1 12/14/1
f 1/8/2 2/7/2 7/15/2 6/16/2
f 2/11/3 4/10/3 8/17/3 7/18/3
f 3/19/4 1/20/4 6/21/4 5/22/4
f 10/23/4 11/24/4 12/14/4 9/13/4
f 6/16/2 7/15/2 11/25/2 10/26/2
f 7/18/5 8/17/5 12/27/5 11/28/5
f 5/22/6 6/21/6 10/29/6 9/30/6
f 3/2/1 4/1/1 26/31/1 25/32/1
f 3/19/4 25/33/4 27/34/4 1/20/4
f 16/35/1 20/36/1 17/37/1 15/38/1
f 27/5/2 13/39/2 14/40/2 28/6/2
f 26/9/3 28/12/3 14/41/3 16/42/3
f 20/36/1 24/43/1 21/44/1 17/37/1
f 13/39/2 18/45/2 19/46/2 14/40/2
f 14/41/3 19/47/3 20/48/3 16/42/3
f 15/49/4 17/50/4 18/51/4 13/52/4
f 22/53/4 21/44/4 24/43/4 23/54/4
f 18/45/2 22/55/2 23/56/2 19/46/2
f 19/47/7 23/57/7 24/58/7 20/48/7
f 17/50/8 21/59/8 22/60/8 18/51/8
f 15/38/1 25/32/1 26/31/1 16/35/1
f 15/49/4 13/52/4 27/34/4 25/33/4
