# Blender v2.81 (sub 16) OBJ File: 'LudumDare_47.blend'
# www.blender.org
mtllib Verticle_Doors1.mtl
o DoorsVerticle2_Cube.041
v -1.738748 0.164529 1.657248
v -1.738748 0.832472 1.657248
v 1.685342 0.164529 1.657248
v 1.685342 0.832472 1.657248
v -0.597384 0.164529 1.657248
v 0.543979 0.164529 1.657248
v 0.543979 0.832472 1.657248
v -0.597384 0.832472 1.657248
v -1.738748 0.214529 0.281970
v -1.738748 0.164529 0.333741
v -1.738748 0.832472 0.333741
v -1.738748 0.782472 0.281970
v 1.685342 0.164529 -0.264214
v 1.685342 0.214529 -0.315985
v 1.685342 0.782472 -0.315985
v 1.685342 0.832472 -0.264214
v -0.597384 0.832472 0.333812
v -0.597384 0.782472 0.281970
v 0.543979 0.782472 -0.315985
v 0.543979 0.832472 -0.264144
v 0.543979 0.164529 -0.264144
v 0.543979 0.214529 -0.315985
v -0.597384 0.214529 0.281970
v -0.597384 0.164529 0.333812
vt 0.393714 0.625000
vt 0.322857 0.625000
vt 0.677143 0.625000
vt 0.606286 0.625000
vt 0.375000 0.916667
vt 0.625000 0.916667
vt 0.625000 1.000000
vt 0.375000 1.000000
vt 0.375000 0.628280
vt 0.625000 0.628280
vt 0.625000 0.750000
vt 0.375000 0.750000
vt 0.291667 0.628284
vt 0.291667 0.750000
vt 0.791667 0.629712
vt 0.875000 0.629705
vt 0.875000 0.750000
vt 0.791667 0.750000
vt 0.252000 0.625000
vt 0.748000 0.625000
vt 0.208333 0.629712
vt 0.208333 0.750000
vt 0.181143 0.625000
vt 0.818858 0.625000
vt 0.625000 0.833333
vt 0.375000 0.833333
vt 0.708333 0.628284
vt 0.708333 0.750000
vt 0.375000 0.000000
vt 0.625000 0.000000
vt 0.625000 0.120295
vt 0.606286 0.125000
vt 0.393714 0.125000
vt 0.375000 0.120295
vt 0.125000 0.629705
vt 0.125000 0.750000
vn 0.0000 0.0000 -1.0000
vn 0.0000 0.0000 1.0000
vn 1.0000 0.0000 0.0000
vn 0.0000 -1.0000 0.0000
vn 0.0000 1.0000 0.0000
vn -0.4641 0.0000 -0.8858
vn -1.0000 0.0000 0.0000
vn -0.0000 0.7195 -0.6945
vn 0.0000 -0.7195 -0.6945
vn -0.3418 0.6764 -0.6524
vn -0.3418 -0.6764 -0.6524
usemtl None
s off
f 14/1/1 22/2/1 19/3/1 15/4/1
f 5/5/2 8/6/2 2/7/2 1/8/2
f 13/9/3 14/1/3 15/4/3 16/10/3 4/11/3 3/12/3
f 21/13/4 13/9/4 3/12/4 6/14/4
f 17/15/5 11/16/5 2/17/5 8/18/5
f 22/2/6 23/19/6 18/20/6 19/3/6
f 24/21/4 21/13/4 6/14/4 5/22/4
f 23/19/1 9/23/1 12/24/1 18/20/1
f 3/12/2 4/11/2 7/25/2 6/26/2
f 6/26/2 7/25/2 8/6/2 5/5/2
f 16/10/5 20/27/5 7/28/5 4/11/5
f 20/27/5 17/15/5 8/18/5 7/28/5
f 1/29/7 2/30/7 11/31/7 12/32/7 9/33/7 10/34/7
f 20/27/8 16/10/8 15/4/8 19/3/8
f 24/21/9 10/35/9 9/23/9 23/19/9
f 11/16/8 17/15/8 18/20/8 12/24/8
f 17/15/10 20/27/10 19/3/10 18/20/10
f 13/9/9 21/13/9 22/2/9 14/1/9
f 21/13/11 24/21/11 23/19/11 22/2/11
f 10/35/4 24/21/4 5/22/4 1/36/4
