# Blender v2.81 (sub 16) OBJ File: 'LudumDare_47.blend'
# www.blender.org
mtllib Verticle_Door.mtl
o VerticleDoor.001_Cube.031
v -1.120564 -0.000000 -1.500000
v -1.500000 -0.000000 -1.120564
v -1.500000 -0.000000 1.120564
v -1.120564 -0.000000 1.500000
v 1.120564 -0.000000 1.500000
v 1.500000 0.000000 1.120564
v 1.500000 0.000000 -1.120564
v 1.120564 -0.000000 -1.500000
v -1.500000 1.000000 -1.120564
v -1.120564 1.000000 -1.500000
v -1.120564 1.000000 1.500000
v -1.500000 1.000000 1.120564
v 1.500000 1.000000 1.120564
v 1.120564 1.000000 1.500000
v 1.120564 1.000000 -1.500000
v 1.500000 1.000000 -1.120564
v 1.899194 0.943218 -1.418779
v 1.418779 0.943218 -1.899194
v 1.418779 0.943218 1.899194
v 1.899194 0.943218 1.418779
v -1.899194 0.943217 1.418779
v -1.418779 0.943217 1.899194
v -1.418779 0.943217 -1.899194
v -1.899194 0.943217 -1.418779
v 1.856858 1.228979 -1.387152
v 1.899194 1.181137 -1.418779
v 1.418779 1.181137 -1.899194
v 1.387152 1.228979 -1.856858
v 1.418779 1.181137 1.899194
v 1.387152 1.228979 1.856858
v 1.899194 1.181137 1.418779
v 1.856858 1.228979 1.387152
v -1.856858 1.228979 1.387152
v -1.899194 1.181137 1.418779
v -1.387152 1.228979 1.856858
v -1.418779 1.181137 1.899194
v -1.387152 1.228979 -1.856858
v -1.418779 1.181137 -1.899194
v -1.899194 1.181137 -1.418779
v -1.856858 1.228979 -1.387152
v 1.500000 1.177643 -1.120564
v 1.545428 1.228979 -1.154500
v 1.154500 1.228979 -1.545428
v 1.120564 1.177643 -1.500000
v 1.154500 1.228979 1.545428
v 1.120564 1.177643 1.500000
v 1.545428 1.228979 1.154500
v 1.500000 1.177643 1.120564
v -1.500000 1.177643 1.120564
v -1.545428 1.228979 1.154500
v -1.120564 1.177643 1.500000
v -1.154500 1.228979 1.545428
v -1.120564 1.177643 -1.500000
v -1.154500 1.228979 -1.545428
v -1.545428 1.228979 -1.154500
v -1.500000 1.177643 -1.120564
v -1.359625 0.047846 -1.820010
v -1.820010 0.047846 -1.359625
v -1.820010 0.047846 1.359625
v -1.359625 0.047846 1.820010
v 1.359625 0.047847 1.820010
v 1.820010 0.047847 1.359625
v 1.820010 0.047847 -1.359625
v 1.359625 0.047847 -1.820010
v -1.145227 -0.253027 -1.533016
v -1.120564 -0.215718 -1.500000
v -1.500000 -0.215718 -1.120564
v -1.533015 -0.253027 -1.145228
v -1.533015 -0.253027 1.145228
v -1.500000 -0.215718 1.120564
v -1.120564 -0.215718 1.500000
v -1.145227 -0.253027 1.533016
v 1.145228 -0.253027 1.533016
v 1.120564 -0.215717 1.500000
v 1.500000 -0.215717 1.120564
v 1.533016 -0.253027 1.145228
v 1.533016 -0.253027 -1.145228
v 1.500000 -0.215717 -1.120564
v 1.120564 -0.215717 -1.500000
v 1.145228 -0.253027 -1.533016
v -1.359625 -0.215718 -1.820010
v -1.334961 -0.253027 -1.786995
v -1.786995 -0.253027 -1.334961
v -1.820010 -0.215718 -1.359625
v -1.820010 -0.215718 1.359625
v -1.786995 -0.253027 1.334961
v -1.334961 -0.253027 1.786995
v -1.359625 -0.215718 1.820010
v 1.359625 -0.215717 1.820010
v 1.334961 -0.253027 1.786995
v 1.786995 -0.253027 1.334961
v 1.820010 -0.215717 1.359625
v 1.820010 -0.215717 -1.359625
v 1.786995 -0.253027 -1.334961
v 1.334961 -0.253027 -1.786995
v 1.359625 -0.215717 -1.820010
v -1.500000 0.200000 1.120564
v 1.120564 0.200000 -1.500000
v 1.120564 0.800000 -1.500000
v -1.500000 0.800000 1.120564
v -1.120564 0.800000 1.500000
v 1.500000 0.800000 -1.120564
v 1.500000 0.200000 -1.120564
v -1.120564 0.200000 1.500000
v 1.500000 0.800000 1.120564
v -1.500000 0.200000 -1.120564
v -1.500000 0.800000 -1.120564
v 1.500000 0.200000 1.120564
v 1.120564 0.200000 1.500000
v -1.120564 0.800000 -1.500000
v -1.120564 0.200000 -1.500000
v 1.120564 0.800000 1.500000
v -1.120564 0.200000 -1.500000
v 1.120564 0.800000 1.500000
v 1.120564 0.200000 1.500000
v -1.120564 0.800000 -1.500000
v -1.500000 0.800000 -1.120564
v 1.500000 0.200000 1.120564
v 1.500000 0.800000 1.120564
v -1.500000 0.200000 -1.120564
v 1.500000 0.200000 -1.120564
v -1.120564 0.200000 1.500000
v -1.120564 0.800000 1.500000
v 1.500000 0.800000 -1.120564
v 1.120564 0.800000 -1.500000
v -1.500000 0.800000 1.120564
v -1.500000 0.200000 1.120564
v 1.120564 0.200000 -1.500000
v 1.628069 0.257273 1.216237
v 1.216237 0.257273 1.628069
v 1.628069 0.742727 1.216237
v 1.216237 0.742727 1.628069
v -1.216237 0.742726 -1.628069
v -1.628069 0.742726 -1.216237
v -1.216236 0.257273 -1.628069
v -1.628069 0.257273 -1.216237
v 1.628069 0.742727 -1.216237
v 1.216237 0.742727 -1.628069
v 1.628069 0.257273 -1.216237
v 1.216237 0.257273 -1.628069
v -1.628069 0.742726 1.216237
v -1.628069 0.257273 1.216237
v -1.216237 0.742726 1.628069
v -1.120564 0.200000 1.500000
v 1.500000 0.200000 1.120564
v 1.120564 0.200000 1.500000
v 1.500000 0.800000 1.120564
v 1.120564 0.800000 1.500000
v -1.120564 0.800000 -1.500000
v -1.500000 0.800000 -1.120564
v -1.120564 0.200000 -1.500000
v -1.500000 0.200000 -1.120564
v 1.500000 0.800000 -1.120564
v 1.120564 0.800000 -1.500000
v 1.500000 0.200000 -1.120564
v 1.120564 0.200000 -1.500000
v -1.500000 0.800000 1.120564
v -1.500000 0.200000 1.120564
v -1.120564 0.800000 1.500000
v -1.216236 0.257273 1.628069
vt 0.687500 0.578310
vt 0.687500 0.671690
vt 0.687500 0.671690
vt 0.687500 0.578310
vt 0.796690 0.562500
vt 0.703310 0.562500
vt 0.703310 0.562500
vt 0.796690 0.562500
vt 0.703310 0.687500
vt 0.796690 0.687500
vt 0.796690 0.687500
vt 0.703310 0.687500
vt 0.687500 0.578310
vt 0.687500 0.671690
vt 0.687500 0.671690
vt 0.687500 0.578310
vt 0.812500 0.671690
vt 0.812500 0.671690
vt 0.687500 0.671690
vt 0.687500 0.671690
vt 0.703310 0.687500
vt 0.703310 0.687500
vt 0.812500 0.578310
vt 0.812500 0.578310
vt 0.703310 0.562500
vt 0.796690 0.562500
vt 0.703310 0.687500
vt 0.796690 0.687500
vt 0.796690 0.687500
vt 0.703310 0.687500
vt 0.796690 0.562500
vt 0.703310 0.562500
vt 0.703310 0.562500
vt 0.796690 0.562500
vt 0.812500 0.578310
vt 0.812500 0.578310
vt 0.812500 0.671690
vt 0.812500 0.671690
vt 0.687500 0.578310
vt 0.687500 0.671690
vt 0.687500 0.671690
vt 0.687500 0.578310
vt 0.812500 0.578310
vt 0.796690 0.562500
vt 0.796690 0.562500
vt 0.812500 0.578310
vt 0.703310 0.687500
vt 0.796690 0.687500
vt 0.796690 0.687500
vt 0.703310 0.687500
vt 0.812500 0.671690
vt 0.812500 0.671690
vt 0.703310 0.562500
vt 0.703310 0.562500
vt 0.703310 0.687500
vt 0.687500 0.671690
vt 0.812500 0.578310
vt 0.812500 0.671690
vt 0.796690 0.687500
vt 0.687500 0.578310
vt 0.687500 0.671690
vt 0.687500 0.578310
vt 0.687500 0.578310
vt 0.687500 0.671690
vt 0.703310 0.562500
vt 0.703310 0.562500
vt 0.796690 0.687500
vt 0.703310 0.687500
vt 0.703310 0.687500
vt 0.796690 0.687500
vt 0.796690 0.562500
vt 0.812500 0.578310
vt 0.812500 0.578310
vt 0.796690 0.562500
vt 0.812500 0.671690
vt 0.812500 0.671690
vt 0.796690 0.562500
vt 0.812500 0.578310
vt 0.812500 0.578310
vt 0.796690 0.562500
vt 0.796690 0.562500
vt 0.796690 0.562500
vt 0.687500 0.671690
vt 0.703310 0.687500
vt 0.796690 0.687500
vt 0.796690 0.687500
vt 0.812500 0.671690
vt 0.812500 0.671690
vt 0.703310 0.562500
vt 0.703310 0.562500
vt 0.687500 0.578310
vt 0.687500 0.578310
vt 0.812500 0.578310
vt 0.812500 0.578310
vt 0.687500 0.578310
vt 0.703310 0.562500
vt 0.703310 0.562500
vt 0.687500 0.578310
vt 0.812500 0.671690
vt 0.812500 0.671690
vt 0.687500 0.671690
vt 0.687500 0.671690
vt 0.703310 0.687500
vt 0.703310 0.687500
vt 0.796690 0.687500
vt 0.796690 0.687500
vt 0.812500 0.578310
vt 0.812500 0.671690
vt 0.687500 0.578310
vt 0.687500 0.671690
vt 0.687500 0.671690
vt 0.687500 0.578310
vt 0.687500 0.578310
vt 0.687500 0.671690
vt 0.687500 0.578310
vt 0.796690 0.687500
vt 0.812500 0.671690
vt 0.796690 0.687500
vt 0.703310 0.562500
vt 0.687500 0.578310
vt 0.687500 0.671690
vt 0.703310 0.687500
vt 0.796690 0.562500
vt 0.796690 0.562500
vt 0.812500 0.578310
vt 0.703310 0.687500
vt 0.796690 0.687500
vt 0.796690 0.562500
vt 0.703310 0.562500
vt 0.796690 0.562500
vt 0.703310 0.562500
vt 0.812500 0.671690
vt 0.703310 0.687500
vt 0.687500 0.671690
vt 0.812500 0.578310
vt 0.812500 0.671690
vt 0.703310 0.562500
vt 0.796690 0.687500
vt 0.796690 0.562500
vt 0.812500 0.578310
vt 0.687500 0.578310
vt 0.812500 0.671690
vt 0.812500 0.578310
vt 0.703310 0.687500
vt 0.796690 0.687500
vt 0.703310 0.687500
vt 0.796690 0.687500
vt 0.796690 0.687500
vt 0.703310 0.687500
vt 0.796690 0.562500
vt 0.703310 0.562500
vt 0.703310 0.562500
vt 0.796690 0.562500
vt 0.812500 0.671690
vt 0.812500 0.671690
vt 0.812500 0.578310
vt 0.812500 0.578310
vt 0.687500 0.578310
vt 0.687500 0.671690
vt 0.703310 0.562500
vn -1.0000 0.0000 0.0000
vn -0.0000 0.0000 1.0000
vn -0.0000 0.0000 -1.0000
vn 0.0000 1.0000 0.0000
vn 0.7071 0.0000 -0.7071
vn -0.7071 0.0000 -0.7071
vn 0.7071 0.0000 0.7071
vn -0.7071 0.0000 0.7071
vn 1.0000 0.0000 -0.0000
vn -0.0000 0.6627 0.7489
vn 0.4773 0.7378 -0.4773
vn -0.4773 0.7378 0.4773
vn 0.4773 0.7378 0.4773
vn -0.4773 0.7378 -0.4773
vn 0.7489 0.6627 0.0000
vn -0.0000 0.6627 -0.7489
vn -0.7489 0.6627 0.0000
vn 0.0000 -1.0000 0.0000
vn 0.4773 -0.7378 -0.4773
vn -0.4773 -0.7378 -0.4773
vn 0.4773 -0.7378 0.4773
vn -0.4773 -0.7378 0.4773
vn 0.7489 -0.6627 0.0000
vn 0.0000 -0.6627 0.7489
vn 0.0000 -0.6627 -0.7489
vn -0.7489 -0.6627 0.0000
vn -0.2407 0.9403 -0.2407
vn -0.2407 -0.9403 -0.2407
vn 0.2407 -0.9403 0.2407
vn 0.2407 0.9403 0.2407
vn -0.2407 -0.9403 0.2407
vn -0.2407 0.9403 0.2407
vn 0.4082 -0.9129 -0.0000
vn 0.4082 0.9129 0.0000
vn -0.4082 -0.9129 0.0000
vn -0.4082 0.9129 0.0000
vn 0.0000 -0.9129 0.4082
vn -0.0000 0.9129 0.4082
vn 0.0000 -0.9129 -0.4082
vn -0.0000 0.9129 -0.4082
vn 0.2407 -0.9403 -0.2407
vn 0.2407 0.9403 -0.2407
usemtl Material.027
s off
f 124/1/1 105/2/1 13/3/1 16/4/1
f 116/5/2 125/6/2 15/7/2 10/8/2
f 112/9/3 101/10/3 11/11/3 14/12/3
f 42/13/4 47/14/4 32/15/4 25/16/4
f 100/17/5 12/18/5 11/11/5 101/10/5
f 108/19/6 6/20/6 5/21/6 109/22/6
f 116/5/7 10/8/7 9/23/7 117/24/7
f 124/1/8 16/4/8 15/7/8 125/6/8
f 100/17/9 117/24/9 9/23/9 12/18/9
f 10/8/2 15/7/2 44/25/2 53/26/2
f 45/27/4 52/28/4 35/29/4 30/30/4
f 54/31/4 43/32/4 28/33/4 37/34/4
f 55/35/4 54/31/4 37/34/4 40/36/4
f 47/14/4 45/27/4 30/30/4 32/15/4
f 50/37/4 55/35/4 40/36/4 33/38/4
f 52/28/4 50/37/4 33/38/4 35/29/4
f 26/39/9 31/40/9 20/41/9 17/42/9
f 39/43/6 38/44/6 23/45/6 24/46/6
f 29/47/2 36/48/2 22/49/2 19/50/2
f 34/51/1 39/43/1 24/46/1 21/52/1
f 31/40/7 29/47/7 19/50/7 20/41/7
f 38/44/3 27/53/3 18/54/3 23/45/3
f 13/3/6 14/12/6 46/55/6 48/56/6
f 9/23/7 10/8/7 53/26/7 56/57/7
f 11/11/5 12/18/5 49/58/5 51/59/5
f 14/12/3 11/11/3 51/59/3 46/55/3
f 12/18/9 9/23/9 56/57/9 49/58/9
f 16/4/1 13/3/1 48/56/1 41/60/1
f 36/48/8 34/51/8 21/52/8 22/49/8
f 15/7/8 16/4/8 41/60/8 44/25/8
f 36/48/10 29/47/10 30/30/10 35/29/10
f 26/39/11 27/53/11 28/33/11 25/16/11
f 34/51/12 36/48/12 35/29/12 33/38/12
f 29/47/13 31/40/13 32/15/13 30/30/13
f 38/44/14 39/43/14 40/36/14 37/34/14
f 31/40/15 26/39/15 25/16/15 32/15/15
f 27/53/16 38/44/16 37/34/16 28/33/16
f 39/43/17 34/51/17 33/38/17 40/36/17
f 27/53/5 26/39/5 17/42/5 18/54/5
f 52/28/16 45/27/16 46/55/16 51/59/16
f 42/13/12 43/32/12 44/25/12 41/60/12
f 50/37/11 52/28/11 51/59/11 49/58/11
f 45/27/14 47/14/14 48/56/14 46/55/14
f 54/31/13 55/35/13 56/57/13 53/26/13
f 47/14/17 42/13/17 41/60/17 48/56/17
f 43/32/10 54/31/10 53/26/10 44/25/10
f 55/35/15 50/37/15 49/58/15 56/57/15
f 43/32/4 42/13/4 25/16/4 28/33/4
f 76/61/18 77/62/18 94/63/18 91/64/18
f 77/62/18 80/65/18 95/66/18 94/63/18
f 72/67/18 73/68/18 90/69/18 87/70/18
f 73/68/18 76/61/18 91/64/18 90/69/18
f 1/71/7 2/72/7 67/73/7 66/74/7
f 69/75/18 72/67/18 87/70/18 86/76/18
f 81/77/6 84/78/6 58/79/6 57/80/6
f 80/65/18 65/81/18 82/82/18 95/66/18
f 5/21/6 6/20/6 75/83/6 74/84/6
f 4/85/3 5/21/3 74/84/3 71/86/3
f 2/72/9 3/87/9 70/88/9 67/73/9
f 8/89/2 1/71/2 66/74/2 79/90/2
f 3/87/5 4/85/5 71/86/5 70/88/5
f 6/20/1 7/91/1 78/92/1 75/83/1
f 68/93/18 69/75/18 86/76/18 83/94/18
f 7/91/8 8/89/8 79/90/8 78/92/8
f 93/95/5 96/96/5 64/97/5 63/98/5
f 84/78/1 85/99/1 59/100/1 58/79/1
f 92/101/9 93/95/9 63/98/9 62/102/9
f 89/103/7 92/101/7 62/102/7 61/104/7
f 85/99/8 88/105/8 60/106/8 59/100/8
f 96/96/3 81/77/3 57/80/3 64/97/3
f 88/105/2 89/103/2 61/104/2 60/106/2
f 72/67/19 69/75/19 70/88/19 71/86/19
f 76/61/20 73/68/20 74/84/20 75/83/20
f 68/93/21 65/81/21 66/74/21 67/73/21
f 80/65/22 77/62/22 78/92/22 79/90/22
f 69/75/23 68/93/23 67/73/23 70/88/23
f 65/81/24 80/65/24 79/90/24 66/74/24
f 73/68/25 72/67/25 71/86/25 74/84/25
f 77/62/26 76/61/26 75/83/26 78/92/26
f 88/105/22 85/99/22 86/76/22 87/70/22
f 92/101/21 89/103/21 90/69/21 91/64/21
f 84/78/20 81/77/20 82/82/20 83/94/20
f 96/96/19 93/95/19 94/63/19 95/66/19
f 85/99/26 84/78/26 83/94/26 86/76/26
f 81/77/25 96/96/25 95/66/25 82/82/25
f 89/103/24 88/105/24 87/70/24 90/69/24
f 93/95/23 92/101/23 91/64/23 94/63/23
f 65/81/18 68/93/18 83/94/18 82/82/18
f 3/87/9 2/72/9 120/107/9 97/108/9
f 139/109/1 129/110/1 131/111/1 137/112/1
f 121/113/2 108/19/2 118/114/2 103/115/2
f 104/116/2 97/108/2 127/117/2 122/118/2
f 7/91/8 121/113/8 128/119/8 8/89/8
f 105/2/2 124/1/2 102/120/2 119/121/2
f 109/22/2 104/116/2 122/118/2 115/122/2
f 120/107/2 113/123/2 111/124/2 106/125/2
f 1/71/7 113/123/7 120/107/7 2/72/7
f 101/10/2 112/9/2 114/126/2 123/127/2
f 125/6/2 116/5/2 110/128/2 99/129/2
f 97/108/2 120/107/2 106/125/2 127/117/2
f 13/3/6 105/2/6 112/9/6 14/12/6
f 108/19/2 109/22/2 115/122/2 118/114/2
f 112/9/2 105/2/2 119/121/2 114/126/2
f 99/129/2 110/128/2 149/130/2 154/131/2
f 3/87/5 97/108/5 104/116/5 4/85/5
f 124/1/2 125/6/2 99/129/2 102/120/2
f 100/17/2 101/10/2 123/127/2 126/132/2
f 118/114/2 115/122/2 146/133/2 145/134/2
f 5/21/3 4/85/3 104/116/3 109/22/3
f 127/117/2 106/125/2 152/135/2 158/136/2
f 128/119/2 121/113/2 103/115/2 98/137/2
f 115/122/2 122/118/2 144/138/2 146/133/2
f 1/71/2 8/89/2 128/119/2 113/123/2
f 106/125/2 111/124/2 151/139/2 152/135/2
f 116/5/2 117/24/2 107/140/2 110/128/2
f 103/115/2 118/114/2 145/134/2 155/141/2
f 7/91/1 6/20/1 108/19/1 121/113/1
f 107/140/2 126/132/2 157/142/2 150/143/2
f 117/24/2 100/17/2 126/132/2 107/140/2
f 123/127/2 114/126/2 148/144/2 159/145/2
f 113/123/2 128/119/2 98/137/2 111/124/2
f 130/146/3 160/147/3 143/148/3 132/149/3
f 135/150/2 140/151/2 138/152/2 133/153/2
f 131/111/6 129/110/6 130/146/6 132/149/6
f 142/154/5 141/155/5 143/148/5 160/147/5
f 139/109/8 137/112/8 138/152/8 140/151/8
f 135/150/7 133/153/7 134/156/7 136/157/7
f 142/154/9 136/157/9 134/156/9 141/155/9
f 102/120/2 99/129/2 154/131/2 153/158/2
f 126/132/2 123/127/2 159/145/2 157/142/2
f 114/126/2 119/121/2 147/159/2 148/144/2
f 111/124/2 98/137/2 156/160/2 151/139/2
f 98/137/2 103/115/2 155/141/2 156/160/2
f 122/118/2 127/117/2 158/136/2 144/138/2
f 119/121/2 102/120/2 153/158/2 147/159/2
f 110/128/2 107/140/2 150/143/2 149/130/2
f 130/146/27 129/110/27 145/134/27 146/133/27
f 131/111/28 132/149/28 148/144/28 147/159/28
f 134/156/29 133/153/29 149/130/29 150/143/29
f 135/150/30 136/157/30 152/135/30 151/139/30
f 138/152/31 137/112/31 153/158/31 154/131/31
f 139/109/32 140/151/32 156/160/32 155/141/32
f 141/155/33 134/156/33 150/143/33 157/142/33
f 136/157/34 142/154/34 158/136/34 152/135/34
f 137/112/35 131/111/35 147/159/35 153/158/35
f 129/110/36 139/109/36 155/141/36 145/134/36
f 133/153/37 138/152/37 154/131/37 149/130/37
f 140/151/38 135/150/38 151/139/38 156/160/38
f 132/149/39 143/148/39 159/145/39 148/144/39
f 160/147/40 130/146/40 146/133/40 144/138/40
f 143/148/41 141/155/41 157/142/41 159/145/41
f 142/154/42 160/147/42 144/138/42 158/136/42
